<?xml version="1.0" standalone="no"?>
<!DOCTYPE svg PUBLIC "-//W3C//DTD SVG 20010904//EN"
 "http://www.w3.org/TR/2001/REC-SVG-20010904/DTD/svg10.dtd">
<svg version="1.0" xmlns="http://www.w3.org/2000/svg"
 width="1041.000000pt" height="518.000000pt" viewBox="0 0 1041.000000 518.000000"
 preserveAspectRatio="xMidYMid meet">

<g transform="translate(0.000000,518.000000) scale(0.100000,-0.100000)"
fill="#000000" stroke="none">
<path d="M4180 5169 c0 -7 12 -9 33 -6 90 15 330 -68 478 -165 107 -70 255
-213 314 -303 306 -467 244 -1057 -152 -1436 -150 -144 -334 -241 -539 -284
-86 -18 -227 -21 -232 -5 -5 13 -52 13 -52 0 0 -12 -88 -12 -147 -1 -38 7 -43
6 -43 -9 0 -14 -17 -22 -77 -35 -288 -64 -544 -206 -750 -416 -170 -174 -277
-348 -353 -578 -105 -314 -104 -645 2 -956 149 -435 498 -784 938 -935 l95
-32 3358 -6 3357 -5 0 2592 0 2591 -3115 0 c-2282 0 -3115 -3 -3115 -11z"/>
</g>
</svg>
