<?xml version="1.0" standalone="no"?>
<!DOCTYPE svg PUBLIC "-//W3C//DTD SVG 20010904//EN"
 "http://www.w3.org/TR/2001/REC-SVG-20010904/DTD/svg10.dtd">
<svg version="1.0" xmlns="http://www.w3.org/2000/svg"
 width="4936.000000pt" height="2292.000000pt" viewBox="0 0 4936.000000 2292.000000"
 preserveAspectRatio="xMidYMid meet">

<g transform="translate(0.000000,2292.000000) scale(0.100000,-0.100000)"
fill="#000000" stroke="none">
<path d="M9910 22905 c0 -13 -557 -15 -4955 -15 l-4955 0 2 -11422 c2 -6283 4
-11246 5 -11030 l3 392 405 0 405 0 0 -390 0 -390 95 0 95 0 0 390 0 390 405
0 405 0 0 -390 0 -390 95 0 95 0 0 390 0 390 405 0 405 0 0 -390 0 -390 90 0
90 0 2 393 c2 215 6 391 11 390 4 -2 187 -3 407 -3 l400 0 0 -390 0 -391 90 3
91 3 -1 388 0 387 410 0 410 0 0 -390 0 -390 90 0 c50 0 90 3 90 8 0 4 1 179
1 390 l1 382 409 0 409 0 0 -390 0 -390 90 0 90 0 2 393 c2 215 6 391 11 390
4 -2 187 -3 407 -3 l400 0 0 -390 0 -390 90 0 90 0 0 390 0 390 410 0 410 0 0
-390 0 -390 90 0 90 0 2 393 c2 215 6 391 11 390 4 -2 187 -3 407 -3 l400 0 0
-390 0 -391 91 3 91 3 -1 388 -1 387 410 0 410 0 0 -390 0 -390 45 0 45 0 0
410 0 410 315 0 315 0 0 -390 0 -390 95 0 95 0 0 390 0 390 405 0 405 0 0
-390 0 -390 95 0 95 0 0 390 0 390 405 0 405 0 0 -390 0 -390 90 0 90 0 1 383
c1 210 1 385 0 390 0 4 184 7 409 7 l410 0 0 -390 0 -390 90 0 90 0 0 390 0
390 410 0 410 0 0 -390 0 -391 90 3 90 3 1 388 2 387 408 0 409 0 0 -390 0
-390 90 0 90 0 0 390 0 390 410 0 410 0 0 -390 0 -390 90 0 90 0 0 390 0 390
410 0 410 0 0 -390 0 -390 90 0 90 0 0 390 0 390 410 0 410 0 0 -390 0 -391
90 3 90 3 1 387 0 388 409 0 410 0 0 -390 0 -390 29 0 c28 0 30 -3 34 -42 l4
-43 1 43 c1 23 7 42 12 42 6 0 10 123 10 350 l0 350 395 0 395 0 0 -390 0
-390 95 0 95 0 0 390 0 390 405 0 405 0 0 -390 0 -390 95 0 95 0 0 390 0 390
405 0 405 0 0 -390 0 -390 90 0 90 0 0 390 0 390 410 0 410 0 0 -390 0 -390
90 0 90 0 0 390 0 390 410 0 410 0 0 -390 0 -391 90 3 90 3 1 388 1 387 409 0
409 0 0 -390 0 -390 90 0 90 0 0 390 0 390 410 0 410 0 0 -390 0 -390 90 0 90
0 0 390 0 390 410 0 410 0 0 -390 0 -390 90 0 90 0 0 390 0 390 410 0 410 0 0
-390 0 -390 90 0 90 0 0 368 c0 202 3 377 6 390 l6 22 404 0 404 0 0 -389 0
-389 34 -4 c19 -2 39 -2 45 0 8 3 11 111 11 373 l0 369 395 0 395 0 0 -375 0
-375 95 0 95 0 0 375 0 375 405 0 405 0 0 -375 0 -375 95 0 95 0 0 375 0 375
405 0 405 0 0 -375 0 -375 90 0 90 0 0 375 0 375 410 0 410 0 0 -375 0 -375
90 0 90 0 0 375 0 375 410 0 410 0 0 -375 0 -375 90 0 90 0 1 348 c1 191 2
359 2 374 l1 28 408 0 408 0 0 -375 0 -375 90 0 90 0 0 375 0 375 410 0 410 0
0 -375 0 -375 90 0 90 0 0 375 0 375 410 0 410 0 0 -375 0 -375 90 0 90 0 2
375 c2 206 6 375 11 375 4 0 187 0 407 0 l400 0 0 -375 0 -375 90 0 90 0 1
348 c1 191 2 359 2 375 l1 27 408 0 408 0 0 -375 0 -375 80 0 80 0 0 390 0
390 405 0 405 0 0 -390 0 -390 95 0 95 0 0 390 0 390 405 0 405 0 0 -390 0
-390 95 0 95 0 0 390 0 390 405 0 405 0 0 -390 0 -390 90 0 90 0 0 390 0 390
410 0 410 0 0 -390 0 -390 90 0 90 0 0 390 0 390 410 0 410 0 0 -390 0 -390
90 0 90 0 2 343 c1 188 3 363 3 390 l0 47 408 0 407 0 0 -390 0 -390 90 0 90
0 0 390 0 390 410 0 410 0 0 -390 0 -390 90 0 90 0 0 390 0 390 410 0 410 0 0
-390 0 -390 90 0 90 0 0 390 0 390 410 0 410 0 0 -390 0 -390 90 0 90 0 1 383
c1 210 1 385 0 390 0 4 183 7 409 7 l410 0 0 -390 0 -390 45 0 45 0 0 11420 0
11420 -4980 0 -4980 0 -2 -9982 -3 -9983 -2 9968 -3 9967 -4940 0 c-4933 0
-4940 0 -4940 20 0 20 -7 20 -4940 20 l-4940 0 0 35 0 35 -4860 0 c-4313 0
-4860 -2 -4860 -15z m670 -480 l0 -405 -335 0 -335 0 0 405 0 405 335 0 335 0
0 -405z m1000 0 l0 -405 -405 0 -405 0 0 405 0 405 405 0 405 0 0 -405z m1000
0 l0 -405 -405 0 -405 0 0 405 0 405 405 0 405 0 0 -405z m1000 0 l0 -405
-407 2 -408 3 -3 403 -2 402 410 0 410 0 0 -405z m1000 0 l0 -405 -407 2 -408
3 -2 403 -2 402 409 0 410 0 0 -405z m1000 0 l0 -405 -407 2 -408 3 -2 375
c-1 206 1 387 4 403 l5 27 404 0 404 0 0 -405z m1000 0 l0 -405 -410 0 -410 0
0 405 0 405 410 0 410 0 0 -405z m1000 0 l0 -405 -410 0 -410 0 0 405 0 405
410 0 410 0 0 -405z m1000 0 l0 -405 -410 0 -410 0 0 405 0 405 410 0 410 0 0
-405z m1000 0 l0 -405 -407 2 -408 3 -1 395 c-1 217 0 398 3 403 2 4 186 7
409 7 l404 0 0 -405z m-18720 -40 l0 -405 -405 0 -405 0 0 405 0 405 405 0
405 0 0 -405z m1000 0 l0 -405 -405 0 -405 0 0 405 0 405 405 0 405 0 0 -405z
m1000 0 l0 -405 -405 0 -405 0 0 405 0 405 405 0 405 0 0 -405z m1000 0 l0
-405 -407 2 -408 3 -3 403 -2 402 410 0 410 0 0 -405z m1000 0 l0 -405 -407 2
-408 3 -3 403 -2 402 410 0 410 0 0 -405z m1000 0 l0 -405 -407 2 -408 3 -2
372 c-2 205 0 386 3 403 l7 30 403 0 404 0 0 -405z m1000 0 l0 -405 -410 0
-410 0 0 405 0 405 410 0 410 0 0 -405z m1000 0 l0 -405 -410 0 -410 0 0 405
0 405 410 0 410 0 0 -405z m1000 0 l0 -405 -410 0 -410 0 0 405 0 405 410 0
410 0 0 -405z m1000 0 l0 -405 -407 2 -408 3 -3 389 c-1 215 0 396 2 403 4 10
87 13 411 13 l405 0 0 -405z m10600 -40 l0 -405 -405 0 -405 0 0 405 0 405
405 0 405 0 0 -405z m1000 0 l0 -405 -405 0 -405 0 0 405 0 405 405 0 405 0 0
-405z m1000 0 l0 -405 -405 0 -405 0 0 405 0 405 405 0 405 0 0 -405z m1000 0
l0 -405 -407 2 -408 3 -3 403 -2 402 410 0 410 0 0 -405z m1000 0 l0 -405
-407 2 -408 3 -3 403 -2 402 410 0 410 0 0 -405z m1000 0 l0 -405 -407 2 -408
3 -2 394 c-1 217 0 398 3 403 3 4 187 8 410 8 l404 0 0 -405z m1000 0 l0 -405
-410 0 -410 0 0 405 0 405 410 0 410 0 0 -405z m1000 0 l0 -405 -410 0 -410 0
0 405 0 405 410 0 410 0 0 -405z m1000 0 l0 -405 -410 0 -410 0 0 405 0 405
410 0 410 0 0 -405z m1000 0 l0 -405 -407 2 -408 3 -2 395 c-1 217 1 398 3
402 3 4 187 8 410 8 l404 0 0 -405z m10850 -10 l0 -405 -405 0 -405 0 0 405 0
405 405 0 405 0 0 -405z m1000 0 l0 -405 -405 0 -405 0 0 405 0 405 405 0 405
0 0 -405z m1000 0 l0 -405 -405 0 -405 0 0 405 0 405 405 0 405 0 0 -405z
m1000 0 l0 -405 -407 2 -408 3 -3 403 -2 402 410 0 410 0 0 -405z m1000 0 l0
-405 -407 2 -408 3 -3 403 -2 402 410 0 410 0 0 -405z m1000 0 l0 -405 -404 0
c-359 0 -405 2 -410 16 -8 21 -8 708 0 757 l7 37 403 0 404 0 0 -405z m1000 0
l0 -405 -410 0 -410 0 0 405 0 405 410 0 410 0 0 -405z m1000 0 l0 -405 -410
0 -410 0 0 405 0 405 410 0 410 0 0 -405z m1000 0 l0 -405 -410 0 -410 0 0
405 0 405 410 0 410 0 0 -405z m1000 0 l0 -405 -404 0 c-367 0 -404 2 -410 17
-8 21 -7 779 1 787 4 3 188 6 410 6 l403 0 0 -405z m-18970 -30 l0 -405 -405
0 -405 0 0 405 0 405 405 0 405 0 0 -405z m1000 0 l0 -405 -405 0 -405 0 0
405 0 405 405 0 405 0 0 -405z m1000 0 l0 -405 -405 0 -405 0 0 405 0 405 405
0 405 0 0 -405z m1000 0 l0 -405 -407 2 -408 3 -3 403 -2 402 410 0 410 0 0
-405z m1000 0 l0 -405 -407 2 -408 3 -3 403 -2 402 410 0 410 0 0 -405z m1000
0 l0 -405 -407 2 -408 3 -3 370 c-2 204 0 385 3 403 l6 32 404 0 405 0 0 -405z
m1000 0 l0 -405 -410 0 -410 0 0 405 0 405 410 0 410 0 0 -405z m1000 0 l0
-405 -410 0 -410 0 0 405 0 405 410 0 410 0 0 -405z m1000 0 l0 -405 -410 0
-410 0 0 405 0 405 410 0 410 0 0 -405z m1000 0 l0 -405 -407 2 -408 3 -2 393
c-2 217 0 398 3 403 3 5 181 9 410 9 l404 0 0 -405z m-28760 -880 l0 -405
-335 0 -335 0 0 405 0 405 335 0 335 0 0 -405z m1000 0 l0 -405 -405 0 -405 0
0 405 0 405 405 0 405 0 0 -405z m1000 0 l0 -405 -405 0 -405 0 0 405 0 405
405 0 405 0 0 -405z m1000 0 l0 -405 -407 2 -408 3 -3 403 -2 402 410 0 410 0
0 -405z m1000 0 l0 -405 -407 2 -408 3 -2 403 -2 402 409 0 410 0 0 -405z
m1000 0 l0 -405 -407 2 -408 3 -2 403 -3 402 410 0 410 0 0 -405z m1000 0 l0
-405 -410 0 -410 0 0 405 0 405 410 0 410 0 0 -405z m1000 0 l0 -405 -410 0
-410 0 0 405 0 405 410 0 410 0 0 -405z m1000 0 l0 -405 -410 0 -410 0 0 405
0 405 410 0 410 0 0 -405z m1000 0 l0 -405 -407 2 -408 3 -3 403 -3 402 411 0
410 0 0 -405z m-18720 -40 l0 -405 -405 0 -405 0 0 405 0 405 405 0 405 0 0
-405z m1000 0 l0 -405 -405 0 -405 0 0 405 0 405 405 0 405 0 0 -405z m1000 0
l0 -405 -405 0 -405 0 0 405 0 405 405 0 405 0 0 -405z m1000 0 l0 -405 -410
0 -410 0 0 405 1 405 409 0 410 0 0 -405z m1000 0 l0 -405 -407 2 -408 3 -3
403 -2 402 410 0 410 0 0 -405z m1000 0 l0 -405 -404 0 -404 0 -6 35 c-4 20
-6 202 -5 405 l1 370 409 0 409 0 0 -405z m1000 0 l0 -405 -410 0 -410 0 0
405 0 405 410 0 410 0 0 -405z m1000 0 l0 -405 -410 0 -410 0 0 405 0 405 410
0 410 0 0 -405z m1000 0 l0 -405 -410 0 -410 0 0 405 0 405 410 0 410 0 0
-405z m1000 0 l0 -405 -407 2 -408 3 -2 403 -2 402 409 0 410 0 0 -405z
m10600 -40 l0 -405 -405 0 -405 0 0 405 0 405 405 0 405 0 0 -405z m1000 0 l0
-405 -405 0 -405 0 0 405 0 405 405 0 405 0 0 -405z m1000 0 l0 -405 -405 0
-405 0 0 405 0 405 405 0 405 0 0 -405z m1000 0 l0 -405 -410 0 -410 0 0 405
1 405 409 0 410 0 0 -405z m1000 0 l0 -405 -407 2 -408 3 -3 403 -2 402 410 0
410 0 0 -405z m1000 0 l0 -405 -404 0 -404 0 -6 25 c-4 14 -6 196 -6 405 l1
380 409 0 410 0 0 -405z m1000 0 l0 -405 -407 2 -408 3 -3 403 -2 402 410 0
410 0 0 -405z m1000 0 l0 -405 -410 0 -410 0 0 405 0 405 410 0 410 0 0 -405z
m1000 0 l0 -405 -410 0 -410 0 0 405 0 405 410 0 410 0 0 -405z m1000 0 l0
-405 -407 2 -408 3 -3 403 -3 402 411 0 410 0 0 -405z m10850 -10 l0 -405
-405 0 -405 0 0 405 0 405 405 0 405 0 0 -405z m1000 0 l0 -405 -405 0 -405 0
0 405 0 405 405 0 405 0 0 -405z m1000 0 l0 -405 -405 0 -405 0 0 405 0 405
405 0 405 0 0 -405z m1000 0 l0 -405 -410 0 -410 0 0 405 0 405 410 0 410 0 0
-405z m1000 0 l0 -405 -407 2 -408 3 -2 403 -2 402 409 0 410 0 0 -405z m1000
0 l0 -405 -407 2 -408 3 -2 403 -3 402 410 0 410 0 0 -405z m1000 0 l0 -405
-410 0 -410 0 0 405 0 405 410 0 410 0 0 -405z m1000 0 l0 -405 -410 0 -410 0
0 405 0 405 410 0 410 0 0 -405z m1000 0 l0 -405 -410 0 -410 0 0 405 0 405
410 0 410 0 0 -405z m1000 0 l0 -405 -407 2 -408 3 -3 403 -3 402 411 0 410 0
0 -405z m-18970 -30 l0 -405 -405 0 -405 0 0 405 0 405 405 0 405 0 0 -405z
m1000 0 l0 -405 -405 0 -405 0 0 405 0 405 405 0 405 0 0 -405z m1000 0 l0
-405 -405 0 -405 0 0 405 0 405 405 0 405 0 0 -405z m1000 0 l0 -405 -407 2
-408 3 -3 403 -2 402 410 0 410 0 0 -405z m1000 0 l0 -405 -407 2 -408 3 -2
403 -2 402 409 0 410 0 0 -405z m1000 0 l0 -405 -407 2 -408 3 -2 403 -2 402
409 0 410 0 0 -405z m1000 0 l0 -405 -410 0 -410 0 0 405 0 405 410 0 410 0 0
-405z m1000 0 l0 -405 -410 0 -410 0 0 405 0 405 410 0 410 0 0 -405z m1000 0
l0 -405 -410 0 -410 0 0 405 0 405 410 0 410 0 0 -405z m1000 0 l0 -405 -407
2 -408 3 -2 403 -2 402 409 0 410 0 0 -405z m-25760 -880 l0 -405 -410 0 -410
0 0 403 c0 222 2 406 4 408 2 2 187 3 410 1 l406 -2 0 -405z m3000 0 l0 -405
-410 0 -410 0 0 403 c0 222 2 406 4 408 2 2 187 3 410 1 l406 -2 0 -405z
m2000 0 l0 -405 -410 0 -410 0 0 403 c0 222 2 406 4 408 2 2 187 3 410 1 l406
-2 0 -405z m-8000 0 l0 -405 -335 0 -335 0 0 405 0 405 335 0 335 0 0 -405z
m1000 0 l0 -405 -405 0 -405 0 0 405 0 405 405 0 405 0 0 -405z m1000 0 l0
-405 -405 0 -405 0 0 405 0 405 405 0 405 0 0 -405z m2000 0 l0 -405 -407 2
-408 3 -3 403 -2 402 410 0 410 0 0 -405z m1000 0 l0 -405 -407 2 -408 3 -2
403 -2 402 410 0 409 0 0 -405z m2000 0 l0 -405 -410 0 -410 0 0 405 0 405
410 0 410 0 0 -405z m2000 0 l0 -405 -407 2 -408 3 -2 403 -2 402 409 0 410 0
0 -405z m-18720 -40 l0 -405 -405 0 -405 0 0 405 0 405 405 0 405 0 0 -405z
m1000 0 l0 -405 -405 0 -405 0 0 405 0 405 405 0 405 0 0 -405z m1000 0 l0
-405 -405 0 -405 0 0 405 0 405 405 0 405 0 0 -405z m1000 0 l0 -405 -410 0
-410 0 0 405 1 405 409 0 410 0 0 -405z m1000 0 l0 -405 -407 2 -408 3 -3 403
-2 402 410 0 410 0 0 -405z m1000 0 l0 -405 -407 2 -408 3 -1 403 -2 402 409
0 409 0 0 -405z m1000 0 l0 -405 -410 0 -410 0 0 405 0 405 410 0 410 0 0
-405z m1000 0 l0 -405 -410 0 -410 0 0 405 0 405 410 0 410 0 0 -405z m1000 0
l0 -405 -410 0 -410 0 0 405 0 405 410 0 410 0 0 -405z m1000 0 l0 -405 -407
2 -408 3 -2 403 -2 402 409 0 410 0 0 -405z m18600 -40 l0 -405 -410 0 -410 0
0 403 c0 222 2 406 4 408 2 2 187 3 410 1 l406 -2 0 -405z m-8000 0 l0 -405
-405 0 -405 0 0 405 0 405 405 0 405 0 0 -405z m1000 0 l0 -405 -405 0 -405 0
0 405 0 405 405 0 405 0 0 -405z m1000 0 l0 -405 -405 0 -405 0 0 405 0 405
405 0 405 0 0 -405z m1000 0 l0 -405 -410 0 -410 0 0 405 0 405 410 0 410 0 0
-405z m1000 0 l0 -405 -407 2 -408 3 -3 403 -2 402 410 0 410 0 0 -405z m1000
0 l0 -405 -404 0 -404 0 -6 35 c-4 19 -6 202 -5 405 l1 370 409 0 409 0 0
-405z m1000 0 l0 -405 -410 0 -410 0 0 405 0 405 410 0 410 0 0 -405z m1000 0
l0 -405 -410 0 -410 0 0 405 0 405 410 0 410 0 0 -405z m2000 0 l0 -405 -407
2 -408 3 -2 403 -2 402 410 0 409 0 0 -405z m10850 -10 l0 -405 -405 0 -405 0
0 405 0 405 405 0 405 0 0 -405z m1000 0 l0 -405 -405 0 -405 0 0 405 0 405
405 0 405 0 0 -405z m1000 0 l0 -405 -405 0 -405 0 0 405 0 405 405 0 405 0 0
-405z m1000 0 l0 -405 -410 0 -410 0 0 405 0 405 410 0 410 0 0 -405z m1000 0
l0 -405 -407 2 -408 3 -3 403 -2 402 410 0 410 0 0 -405z m1000 0 l0 -405
-404 0 -404 0 -6 26 c-4 15 -6 197 -5 405 l1 379 409 0 409 0 0 -405z m1000 0
l0 -405 -410 0 -410 0 0 405 0 405 410 0 410 0 0 -405z m1000 0 l0 -405 -410
0 -410 0 0 405 0 405 410 0 410 0 0 -405z m1000 0 l0 -405 -410 0 -410 0 0
405 0 405 410 0 410 0 0 -405z m1000 0 l0 -405 -407 2 -408 3 -2 403 -2 402
409 0 410 0 0 -405z m-18970 -30 l0 -405 -405 0 -405 0 0 405 0 405 405 0 405
0 0 -405z m1000 0 l0 -405 -405 0 -405 0 0 405 0 405 405 0 405 0 0 -405z
m1000 0 l0 -405 -405 0 -405 0 0 405 0 405 405 0 405 0 0 -405z m1000 0 l0
-405 -410 0 -410 0 0 405 0 405 410 0 410 0 0 -405z m1000 0 l0 -405 -410 0
-410 0 0 405 0 405 410 0 410 0 0 -405z m1000 0 l0 -405 -407 2 -408 3 -2 403
-1 402 409 0 409 0 0 -405z m1000 0 l0 -405 -410 0 -410 0 0 405 0 405 410 0
410 0 0 -405z m1000 0 l0 -405 -410 0 -410 0 0 405 0 405 410 0 410 0 0 -405z
m1000 0 l0 -405 -410 0 -410 0 0 405 0 405 410 0 410 0 0 -405z m1000 0 l0
-405 -407 2 -408 3 -3 370 c-2 204 0 385 3 403 l6 32 404 0 405 0 0 -405z
m-28762 -877 l2 -408 -335 0 -335 0 0 410 0 410 333 -2 332 -3 3 -407z m1000
0 l2 -408 -405 0 -405 0 0 410 0 410 403 -2 402 -3 3 -407z m1000 0 l2 -408
-405 0 -405 0 0 410 0 410 403 -2 402 -3 3 -407z m1000 -1 l2 -407 -407 2
-408 3 -3 395 c-1 217 0 401 3 408 3 10 90 12 407 10 l403 -3 3 -408z m1000 0
l2 -407 -407 2 -408 3 -3 395 c-1 217 0 401 3 408 3 10 90 12 407 10 l403 -3
3 -408z m1000 1 l2 -408 -404 0 -404 0 -6 23 c-8 30 -7 783 1 791 4 3 187 5
407 4 l401 -3 3 -407z m1000 0 l2 -408 -410 0 -410 0 0 403 c0 222 3 407 7
410 4 4 187 6 407 5 l401 -3 3 -407z m1000 0 l2 -408 -410 0 -410 0 0 403 c0
222 3 407 7 411 4 3 187 5 407 4 l401 -3 3 -407z m1000 0 l2 -408 -410 0 -410
0 0 403 c0 222 3 407 7 410 4 4 187 6 407 5 l401 -3 3 -407z m1002 -3 l0 -405
-407 2 -408 3 -3 403 -3 402 411 0 410 0 0 -405z m-18722 -37 l2 -408 -405 0
-405 0 0 410 0 410 403 -2 402 -3 3 -407z m1000 0 l2 -408 -405 0 -405 0 0
410 0 410 403 -2 402 -3 3 -407z m1000 0 l2 -408 -405 0 -405 0 0 410 0 410
403 -2 402 -3 3 -407z m1000 -1 l2 -407 -407 2 -408 3 -3 395 c-1 217 0 401 3
408 3 10 90 12 407 10 l403 -3 3 -408z m1000 0 l2 -407 -407 2 -408 3 -2 399
c-1 219 0 403 3 408 3 4 186 7 407 6 l402 -3 3 -408z m1000 0 l2 -407 -407 2
-408 3 -2 400 c-1 220 1 403 4 407 2 5 185 7 406 6 l402 -3 3 -408z m1000 1
l2 -408 -410 0 -410 0 0 403 c0 222 3 407 7 410 4 4 187 6 407 5 l401 -3 3
-407z m1000 0 l2 -408 -410 0 -410 0 0 403 c0 222 3 407 7 410 4 4 187 6 407
5 l401 -3 3 -407z m1000 0 l2 -408 -410 0 -410 0 0 403 c0 222 3 407 7 410 4
4 187 6 407 5 l401 -3 3 -407z m1002 -3 l0 -405 -407 2 -408 3 -2 403 -1 402
409 0 409 0 0 -405z m10598 -37 l2 -408 -405 0 -405 0 0 410 0 410 403 -2 402
-3 3 -407z m1000 0 l2 -408 -405 0 -405 0 0 410 0 410 403 -2 402 -3 3 -407z
m1000 0 l2 -408 -405 0 -405 0 0 410 0 411 403 -3 402 -3 3 -407z m1002 2 l0
-410 -407 2 -408 3 -3 395 c-1 217 0 401 3 407 3 10 94 13 410 13 l405 0 0
-410z m998 -3 l2 -407 -407 2 -408 3 -2 399 c-1 219 0 403 3 408 3 5 183 7
407 6 l402 -3 3 -408z m1000 1 l2 -408 -404 0 -404 0 -6 23 c-7 27 -7 777 0
789 3 4 186 7 407 6 l402 -3 3 -407z m1002 1 l0 -409 -407 2 -408 3 -3 395
c-1 217 0 401 3 408 3 10 91 12 410 12 l405 -1 0 -410z m1000 1 l0 -410 -410
0 -410 0 0 403 c0 222 3 407 7 410 3 4 188 7 410 7 l403 0 0 -410z m998 -3 l2
-407 -407 2 -408 3 -3 395 c-1 217 0 401 3 408 3 10 90 12 407 10 l403 -3 3
-408z m1002 -2 l0 -405 -404 0 c-345 0 -405 2 -409 15 -4 8 -6 190 -7 405 l0
390 410 0 410 0 0 -405z m10850 -5 l0 -410 -405 0 -405 0 0 410 0 410 405 0
405 0 0 -410z m998 -2 l2 -408 -405 0 -405 0 0 410 0 410 403 -2 402 -3 3
-407z m1002 2 l0 -410 -405 0 -405 0 0 410 0 410 405 0 405 0 0 -410z m998 -3
l2 -407 -407 2 -408 3 -3 395 c-1 217 0 401 3 408 3 10 90 12 407 10 l403 -3
3 -408z m1000 0 l2 -407 -407 2 -408 3 -3 395 c-1 217 0 401 3 408 3 10 90 12
407 10 l403 -3 3 -408z m1000 0 l2 -407 -407 2 -408 3 -3 375 c-2 206 0 390 3
408 l6 32 402 -2 402 -3 3 -408z m1000 0 l2 -407 -407 2 -408 3 -3 395 c-1
217 0 401 3 408 3 10 90 12 407 10 l403 -3 3 -408z m1000 1 l2 -408 -410 0
-410 0 0 403 c0 222 3 407 7 410 4 4 187 6 407 5 l401 -3 3 -407z m1000 0 l2
-408 -410 0 -410 0 0 403 c0 222 3 407 7 410 4 4 187 6 407 5 l401 -3 3 -407z
m1002 -3 l0 -405 -407 2 -408 3 -3 403 -2 402 410 0 410 0 0 -405z m-18972
-27 l2 -408 -405 0 -405 0 0 410 0 409 403 -2 402 -2 3 -407z m1000 0 l2 -408
-405 0 -405 0 0 410 0 409 403 -2 402 -2 3 -407z m1002 2 l0 -410 -405 0 -405
0 0 410 0 409 405 1 405 0 0 -410z m998 -3 l2 -407 -407 2 -408 3 -3 395 c-1
217 0 401 3 408 3 10 90 12 407 10 l403 -3 3 -408z m1000 0 l2 -407 -407 2
-408 3 -2 400 c-1 219 1 403 3 407 3 4 186 6 407 5 l402 -2 3 -408z m1000 0
l2 -407 -407 2 -408 3 -2 399 c-1 220 1 404 3 408 3 5 186 7 407 6 l402 -3 3
-408z m1002 3 l0 -410 -410 0 -410 0 0 403 c0 222 3 406 6 410 4 3 188 6 410
7 l404 0 0 -410z m998 -2 l2 -408 -410 0 -410 0 0 403 c0 222 3 407 7 410 4 4
187 6 407 5 l401 -3 3 -407z m1000 0 l2 -408 -410 0 -410 0 0 403 c0 222 3
407 7 410 4 4 187 6 407 5 l401 -3 3 -407z m1002 -3 l0 -405 -407 2 -408 3 -2
403 -2 402 410 0 409 0 0 -405z m-28762 -877 l2 -408 -335 0 -335 0 0 410 0
410 333 -2 332 -3 3 -407z m1000 0 l2 -408 -405 0 -405 0 0 410 0 410 403 -2
402 -3 3 -407z m1000 0 l2 -408 -405 0 -405 0 0 410 0 409 403 -2 402 -2 3
-407z m1000 -1 l2 -407 -407 2 -408 3 -3 395 c-1 217 0 401 3 408 4 10 87 12
407 10 l403 -3 3 -408z m1000 0 l2 -407 -407 2 -408 3 -2 395 c-2 217 -1 400
2 407 3 9 104 11 407 10 l403 -2 3 -408z m1000 0 l2 -407 -407 2 -408 3 -2
400 c0 220 1 403 4 408 2 4 185 6 406 5 l402 -3 3 -408z m1000 0 l2 -407 -407
2 -408 3 -3 395 c-1 217 0 400 2 407 4 10 98 12 408 10 l403 -2 3 -408z m1000
1 l2 -408 -410 0 -410 0 0 403 c0 222 3 407 7 410 4 4 187 6 407 5 l401 -3 3
-407z m1000 -1 l2 -407 -407 2 -408 3 -3 395 c-1 217 0 400 2 407 4 9 105 11
408 10 l403 -2 3 -408z m1002 -2 l0 -405 -407 2 -408 3 -2 403 -2 402 410 0
409 0 0 -405z m-18722 -37 l2 -408 -405 0 -405 0 0 410 0 411 403 -3 402 -3 3
-407z m1000 0 l2 -408 -405 0 -405 0 0 410 0 409 403 -2 402 -2 3 -407z m1000
0 l2 -408 -405 0 -405 0 0 410 0 410 403 -2 402 -3 3 -407z m1000 -1 l2 -407
-407 2 -408 3 -3 395 c-1 217 0 401 3 408 3 10 90 12 407 10 l403 -3 3 -408z
m1000 0 l2 -407 -407 2 -408 3 -3 395 c-1 217 0 401 3 408 3 10 90 12 407 10
l403 -3 3 -408z m1000 0 l2 -407 -407 2 -408 3 -2 400 c0 220 1 403 3 407 3 4
186 6 407 5 l402 -2 3 -408z m1000 1 l2 -408 -410 0 -410 0 0 403 c0 222 3
407 7 410 4 4 187 6 407 5 l401 -3 3 -407z m1000 0 l2 -408 -410 0 -410 0 0
403 c0 222 3 407 6 410 4 4 187 5 408 4 l401 -2 3 -407z m1000 -1 l2 -407
-407 2 -408 3 -3 395 c-1 217 0 401 3 408 3 10 90 12 407 10 l403 -3 3 -408z
m1002 -2 l0 -405 -407 2 -408 3 -2 403 -2 402 409 0 410 0 0 -405z m10598 -37
l2 -408 -405 0 -405 0 0 410 0 410 403 -3 402 -2 3 -407z m1000 0 l2 -408
-405 0 -405 0 0 410 0 409 403 -2 402 -2 3 -407z m1000 0 l2 -408 -405 0 -405
0 0 410 0 410 403 -2 402 -3 3 -407z m1000 -1 l2 -407 -407 2 -408 3 -3 395
c-1 217 0 401 3 408 3 10 90 12 407 10 l403 -3 3 -408z m1000 0 l2 -407 -407
2 -408 3 -3 395 c-1 217 0 401 3 407 3 10 94 12 407 10 l403 -2 3 -408z m1000
1 l2 -408 -404 0 -404 0 -6 36 c-8 39 -7 764 1 777 2 4 185 6 406 5 l402 -3 3
-407z m1000 -1 l2 -407 -407 2 -408 3 -3 395 c-1 217 0 401 3 408 4 10 87 12
407 10 l403 -3 3 -408z m1000 1 l2 -408 -410 0 -410 0 0 403 c0 222 3 407 6
410 4 4 187 5 408 4 l401 -2 3 -407z m1000 -1 l2 -407 -407 2 -408 3 -3 395
c-1 217 0 401 3 408 3 10 90 12 407 10 l403 -3 3 -408z m1002 -2 l0 -405 -407
2 -408 3 -2 403 -1 402 409 0 409 0 0 -405z m10848 -7 l2 -408 -405 0 -405 0
0 410 0 410 403 -2 402 -3 3 -407z m1000 0 l2 -408 -405 0 -405 0 0 410 0 410
403 -2 402 -3 3 -407z m1000 0 l2 -408 -405 0 -405 0 0 410 0 410 403 -2 402
-3 3 -407z m1000 -1 l2 -407 -407 2 -408 3 -3 395 c-1 217 0 401 3 408 3 10
90 12 407 10 l403 -3 3 -408z m1000 0 l2 -407 -407 2 -408 3 -3 395 c-1 217 0
401 3 408 3 10 90 12 407 10 l403 -3 3 -408z m1000 1 l2 -408 -404 0 c-374 0
-404 1 -411 17 -7 19 -5 783 2 796 2 4 185 6 406 5 l402 -3 3 -407z m1000 0
l2 -408 -410 0 -410 0 0 403 c0 222 3 407 7 410 4 4 187 6 407 5 l401 -3 3
-407z m1000 0 l2 -408 -410 0 -410 0 0 403 c0 222 3 407 7 410 4 4 187 6 407
5 l401 -3 3 -407z m1000 0 l2 -408 -410 0 -410 0 0 403 c0 222 3 407 7 410 4
4 187 6 407 5 l401 -3 3 -407z m1002 -3 l0 -405 -407 2 -408 3 -2 403 -2 402
409 0 410 0 0 -405z m-18972 -27 l2 -408 -405 0 -405 0 0 409 0 410 403 -2
402 -2 3 -407z m1000 0 l2 -408 -405 0 -405 0 0 410 0 409 403 -2 402 -2 3
-407z m1000 0 l2 -408 -405 0 -405 0 0 410 0 409 403 -2 402 -2 3 -407z m1000
-1 l2 -407 -407 2 -408 3 -3 395 c-1 217 0 400 2 407 4 10 99 12 408 10 l403
-2 3 -408z m1000 0 l2 -407 -407 2 -408 3 -3 394 c-1 217 -1 400 2 407 4 9 99
12 408 11 l403 -2 3 -408z m986 407 c14 -5 16 -51 16 -410 l0 -404 -407 2
-408 3 -1 400 c-1 220 0 403 3 408 5 8 774 10 797 1z m1014 -406 l2 -408 -410
0 -410 0 0 403 c0 222 3 407 6 410 4 4 187 5 408 4 l401 -2 3 -407z m1000 0
l2 -408 -410 0 -410 0 0 403 c0 222 3 407 7 410 4 4 187 6 407 5 l401 -3 3
-407z m1000 0 l2 -408 -410 0 -410 0 0 403 c0 222 3 406 6 410 4 3 187 5 408
4 l401 -2 3 -407z m1002 -3 l0 -405 -407 2 -408 3 -2 403 -2 402 409 0 410 0
0 -405z m-28762 -877 l2 -408 -335 0 -335 0 0 410 0 410 333 -2 332 -3 3 -407z
m988 405 c12 -4 14 -71 14 -409 l0 -404 -405 0 -405 0 0 410 0 411 391 -1
c215 -1 397 -4 405 -7z m1012 -405 l2 -408 -405 0 -405 0 0 409 0 408 403 -1
402 -1 3 -407z m1000 -1 l2 -407 -407 2 -408 3 -3 395 c-1 217 0 401 3 408 4
11 83 12 407 10 l403 -3 3 -408z m1000 0 l2 -407 -407 2 -408 3 -2 399 c-1
219 0 402 2 406 3 4 186 7 407 6 l403 -1 3 -408z m988 406 c12 -4 14 -79 14
-409 l0 -404 -407 2 -408 3 -3 365 c-2 201 0 384 3 408 l6 43 391 -1 c215 -1
397 -4 404 -7z m1012 -406 l2 -407 -407 2 -408 3 -3 395 c-1 217 0 400 2 406
3 8 117 11 408 10 l403 -1 3 -408z m955 407 l47 -7 0 -403 0 -404 -410 0 -410
0 0 403 c0 222 3 406 6 410 9 8 706 9 767 1z m1030 1 c16 -7 17 -36 17 -411
l0 -404 -407 2 -408 3 -3 395 c-1 217 0 400 2 406 5 12 767 21 799 9z m1017
-410 l0 -405 -404 0 c-359 0 -405 2 -410 16 -3 9 -6 191 -6 405 l0 389 410 0
410 0 0 -405z m-18722 -37 l2 -408 -405 0 -405 0 0 409 0 409 403 -2 402 -1 3
-407z m952 406 l50 -7 0 -403 0 -404 -405 0 -405 0 0 409 0 409 355 2 c195 0
377 -2 405 -6z m1048 -406 l2 -408 -405 0 -405 0 0 409 0 409 403 -1 402 -2 3
-407z m946 406 l56 -7 0 -403 0 -404 -407 2 -408 3 -2 399 c-1 219 0 403 3
407 6 10 678 12 758 3z m1054 -407 l2 -407 -407 2 -408 3 -2 395 c-2 217 -1
400 1 406 3 9 115 11 408 10 l403 -1 3 -408z m938 407 l64 -7 0 -403 0 -404
-407 2 -408 3 -2 399 c-1 220 0 403 3 407 6 10 660 12 750 3z m1048 0 c14 -5
16 -48 16 -410 l0 -404 -407 2 -408 3 -3 395 c-1 217 0 400 2 406 3 9 112 12
394 13 215 1 397 -2 406 -5z m1014 -406 l2 -408 -410 0 -410 0 0 403 c0 222 3
407 6 410 4 3 187 5 408 4 l401 -2 3 -407z m1000 -1 l2 -407 -407 2 -408 3 -3
395 c-1 217 0 400 2 406 3 8 119 11 408 10 l403 -1 3 -408z m1002 -2 l0 -405
-407 2 -408 3 -2 403 -2 402 410 0 409 0 0 -405z m10578 369 l22 -6 0 -404 0
-404 -405 0 -405 0 0 409 0 408 383 2 c210 0 392 -2 405 -5z m1006 0 c14 -6
16 -46 16 -410 l0 -404 -405 0 -405 0 0 410 0 409 389 1 c213 0 396 -2 405 -6z
m994 0 l22 -6 0 -404 0 -404 -405 0 -405 0 0 409 0 408 383 2 c210 0 392 -2
405 -5z m942 0 l80 -7 0 -404 0 -403 -407 2 -408 3 -3 395 c-1 217 0 400 2
407 6 13 591 19 736 7z m1058 0 l22 -6 0 -404 0 -404 -407 2 -408 3 -3 395
c-1 217 0 400 2 406 5 12 750 19 794 8z m1020 -407 l2 -407 -407 2 -408 3 -2
399 c-1 220 0 403 3 408 3 4 186 7 407 5 l402 -2 3 -408z m986 407 c14 -5 16
-50 16 -410 l0 -404 -407 2 -408 3 -3 395 c-1 217 0 400 2 407 4 8 108 12 394
12 215 1 397 -2 406 -5z m1014 -406 l2 -408 -410 0 -410 0 0 403 c0 222 3 407
7 410 3 4 187 6 407 5 l401 -3 3 -407z m985 407 c16 -7 17 -36 17 -411 l0
-404 -407 2 -408 3 -3 395 c-1 217 0 400 2 406 5 12 767 21 799 9z m1017 -410
l0 -405 -407 2 -408 3 -2 403 -3 402 410 0 410 0 0 -405z m10848 -7 l2 -408
-405 0 -405 0 0 409 0 409 403 -2 402 -1 3 -407z m984 404 c17 -4 18 -26 18
-408 l0 -404 -405 0 -405 0 0 411 0 410 387 -2 c213 -1 395 -4 405 -7z m1016
-404 l2 -408 -405 0 -405 0 0 408 0 408 403 0 402 -1 3 -407z m990 405 c9 -4
12 -95 12 -409 l0 -404 -407 2 -408 3 -3 395 c-1 217 0 401 3 408 4 11 81 13
397 11 216 -1 399 -4 406 -6z m1010 -406 l2 -407 -407 2 -408 3 -3 395 c-1
217 0 400 2 406 3 7 126 10 408 10 l403 -1 3 -408z m1000 0 l2 -407 -407 2
-408 3 -3 375 c-2 206 0 390 3 408 l6 33 402 -3 402 -3 3 -408z m1000 0 l2
-407 -407 2 -408 3 -3 395 c-1 217 0 400 2 406 3 7 127 10 408 10 l403 -1 3
-408z m1000 1 l2 -408 -410 0 -410 0 0 403 c0 222 3 407 7 411 4 3 187 5 407
4 l401 -3 3 -407z m1000 -1 l2 -407 -407 2 -408 3 -3 395 c-1 217 0 400 2 406
3 7 131 10 407 10 l404 -1 3 -408z m1002 -2 l0 -405 -404 0 -404 0 -6 25 c-4
14 -6 196 -6 405 l1 380 409 0 410 0 0 -405z m-18972 -27 l2 -408 -405 0 -405
0 0 409 0 409 403 -1 402 -2 3 -407z m961 406 l41 -7 0 -403 0 -404 -405 0
-405 0 0 410 0 409 364 1 c201 0 383 -2 405 -6z m1039 -406 l2 -408 -405 0
-405 0 0 409 0 409 403 -2 402 -1 3 -407z m987 405 c13 -4 15 -64 15 -409 l0
-404 -407 2 -408 3 -2 399 c-1 219 0 403 3 407 6 10 776 12 799 2z m1013 -406
l2 -407 -407 2 -408 3 -2 400 c-1 219 0 402 3 406 2 4 185 7 407 6 l402 -2 3
-408z m988 406 c12 -4 14 -71 14 -409 l0 -404 -407 2 -408 3 -2 399 c-1 220 0
403 3 408 6 9 776 10 800 1z m1012 -406 l2 -407 -407 2 -408 3 -3 395 c-1 217
0 400 2 406 3 9 114 11 408 10 l403 -1 3 -408z m987 406 c13 -4 15 -63 15
-409 l0 -404 -410 0 -410 0 0 403 c0 222 3 407 7 411 8 8 777 8 798 -1z m998
1 c16 -6 17 -36 17 -410 l0 -404 -407 2 -408 3 -3 395 c-1 217 0 400 2 406 5
13 767 21 799 8z m1017 -409 l0 -405 -407 2 -408 3 -2 403 -1 402 409 0 409 0
0 -405z m-28760 -875 l0 -410 -335 0 -335 0 0 410 0 410 335 0 335 0 0 -410z
m1000 0 l0 -410 -405 0 -405 0 0 410 0 410 405 0 405 0 0 -410z m1000 0 l0
-410 -405 0 -405 0 0 410 0 410 405 0 405 0 0 -410z m1000 0 l0 -410 -407 2
-408 3 -3 395 c-1 217 0 401 3 407 3 10 94 13 410 13 l405 0 0 -410z m998 -3
l2 -407 -407 2 -408 3 -3 395 c-1 217 0 401 3 408 3 10 90 12 407 10 l403 -3
3 -408z m1000 0 l2 -407 -407 2 -408 3 -3 335 c-2 184 0 368 3 408 l7 72 401
-2 402 -3 3 -408z m1000 1 l2 -408 -410 0 -410 0 0 403 c0 222 3 407 7 410 4
4 187 6 407 5 l401 -3 3 -407z m1000 -1 l2 -407 -407 2 -408 3 -3 395 c-1 217
0 401 3 408 3 10 90 12 407 10 l403 -3 3 -408z m1000 1 l2 -408 -410 0 -410 0
0 403 c0 222 3 407 7 410 4 4 187 6 407 5 l401 -3 3 -407z m1002 -4 l0 -404
-407 2 -408 3 -1 400 -2 400 402 5 c220 3 404 4 409 2 4 -2 7 -185 7 -408z
m-18722 -36 l2 -408 -405 0 -405 0 0 410 0 410 403 -2 402 -3 3 -407z m1000 0
l2 -408 -405 0 -405 0 0 410 0 410 403 -2 402 -3 3 -407z m1002 2 l0 -410
-405 0 -405 0 0 410 0 410 405 0 405 0 0 -410z m1000 0 l0 -410 -407 2 -408 3
-3 395 c-1 217 0 401 3 407 3 10 94 13 410 13 l405 0 0 -410z m998 -3 l2 -407
-407 2 -408 3 -3 395 c-1 217 0 401 3 408 3 10 90 12 407 10 l403 -3 3 -408z
m1000 0 l2 -407 -407 2 -408 3 -3 315 c-2 173 -1 357 3 408 l7 92 401 -2 402
-3 3 -408z m1000 0 l2 -407 -407 2 -408 3 -3 395 c-1 217 0 401 3 408 3 10 90
12 407 10 l403 -3 3 -408z m1000 1 l2 -408 -410 0 -410 0 0 403 c0 222 3 407
7 410 4 4 187 6 407 5 l401 -3 3 -407z m1000 -1 l2 -407 -407 2 -408 3 -3 395
c-1 217 0 401 3 408 3 10 90 12 407 10 l403 -3 3 -408z m1002 -3 l0 -404 -407
2 -408 3 -2 400 -3 400 403 5 c221 3 405 4 410 2 4 -2 7 -185 7 -408z m10600
-34 l0 -410 -405 0 -405 0 0 410 0 410 405 0 405 0 0 -410z m1000 0 l0 -410
-405 0 -405 0 0 410 0 410 405 0 405 0 0 -410z m1000 0 l0 -410 -405 0 -405 0
0 410 0 410 405 0 405 0 0 -410z m998 -3 l2 -407 -407 2 -408 3 -3 395 c-1
217 0 401 3 408 3 10 90 12 407 10 l403 -3 3 -408z m1000 0 l2 -407 -407 2
-408 3 -3 395 c-1 217 0 401 3 408 3 10 90 12 407 10 l403 -3 3 -408z m1000 0
l2 -407 -407 2 -408 3 -2 400 c-1 220 1 403 3 407 3 5 186 7 407 6 l402 -3 3
-408z m1000 0 l2 -407 -407 2 -408 3 -3 395 c-1 217 0 401 3 408 3 10 90 12
407 10 l403 -3 3 -408z m1000 0 l2 -407 -407 2 -408 3 -3 395 c-1 217 0 401 3
408 3 10 90 12 407 10 l403 -3 3 -408z m1000 0 l2 -407 -407 2 -408 3 -3 395
c-1 217 0 401 3 408 3 10 90 12 407 10 l403 -3 3 -408z m1002 -3 l0 -404 -407
2 -408 3 -1 400 -2 400 402 5 c220 3 404 4 409 2 4 -2 7 -185 7 -408z m10848
-6 l2 -408 -405 0 -405 0 0 410 0 410 403 -2 402 -3 3 -407z m1002 2 l0 -410
-405 0 -405 0 0 410 0 410 405 0 405 0 0 -410z m1000 0 l0 -410 -405 0 -405 0
0 410 0 410 405 0 405 0 0 -410z m1000 0 l0 -410 -407 2 -408 3 -3 395 c-1
217 0 401 3 407 3 10 94 13 410 13 l405 0 0 -410z m998 -3 l2 -407 -407 2
-408 3 -3 395 c-1 217 0 401 3 408 3 10 90 12 407 10 l403 -3 3 -408z m1000 0
l2 -407 -407 2 -408 3 -3 335 c-2 184 0 368 3 408 l7 72 401 -2 402 -3 3 -408z
m1000 0 l2 -407 -407 2 -408 3 -3 395 c-1 217 0 401 3 408 3 10 90 12 407 10
l403 -3 3 -408z m1000 1 l2 -408 -410 0 -410 0 0 403 c0 222 3 407 7 410 4 4
187 6 407 5 l401 -3 3 -407z m1000 0 l2 -408 -410 0 -410 0 0 403 c0 222 3
407 7 410 4 4 187 6 407 5 l401 -3 3 -407z m1002 -4 l0 -404 -404 0 c-359 0
-405 2 -410 16 -3 9 -6 191 -6 405 l0 389 403 2 c221 2 405 2 410 0 4 -2 7
-185 7 -408z m-18970 -24 l0 -410 -405 0 -405 0 0 410 0 410 405 0 405 0 0
-410z m998 -2 l2 -408 -405 0 -405 0 0 410 0 410 403 -2 402 -3 3 -407z m1002
2 l0 -410 -405 0 -405 0 0 410 0 410 405 0 405 0 0 -410z m998 -3 l2 -407
-407 2 -408 3 -3 395 c-1 217 0 401 3 408 3 10 90 12 407 10 l403 -3 3 -408z
m1000 0 l2 -407 -407 2 -408 3 -3 395 c-1 217 0 401 3 408 3 10 90 12 407 10
l403 -3 3 -408z m1000 0 l2 -407 -407 2 -408 3 -1 395 c-1 217 1 401 4 408 3
10 90 12 406 10 l401 -3 3 -408z m1000 0 l2 -407 -407 2 -408 3 -3 395 c-1
217 0 401 3 408 3 10 90 12 407 10 l403 -3 3 -408z m1000 1 l2 -408 -410 0
-410 0 0 403 c0 222 3 407 7 410 4 4 187 6 407 5 l401 -3 3 -407z m1000 -1 l2
-407 -407 2 -408 3 -3 395 c-1 217 0 401 3 408 3 10 90 12 407 10 l403 -3 3
-408z m1002 -3 l0 -404 -407 2 -408 3 -2 400 -3 400 403 5 c221 3 405 4 410 2
4 -2 7 -185 7 -408z m-28760 -874 l0 -410 -335 0 -335 0 0 410 0 410 335 0
335 0 0 -410z m1000 0 l0 -410 -405 0 -405 0 0 410 0 410 405 0 405 0 0 -410z
m1000 0 l0 -410 -405 0 -405 0 0 410 0 410 405 0 405 0 0 -410z m1000 0 l0
-410 -407 2 -408 3 -3 395 c-1 217 0 401 3 407 3 10 94 13 410 13 l405 0 0
-410z m1000 0 l0 -410 -407 2 -408 3 -3 395 c-1 217 0 401 3 407 3 10 94 13
410 13 l405 0 0 -410z m1000 0 l0 -410 -407 2 -408 3 -3 394 c-2 217 -1 400 2
408 4 11 80 13 411 13 l405 0 0 -410z m1000 0 l0 -410 -407 2 -408 3 -3 395
c-1 217 0 401 3 407 3 10 94 13 410 13 l405 0 0 -410z m1000 0 l0 -410 -410 0
-410 0 0 403 c0 222 3 407 7 410 3 4 188 7 410 7 l403 0 0 -410z m998 -2 l2
-408 -410 0 -410 0 0 403 c0 222 3 407 7 410 4 4 187 6 407 5 l401 -3 3 -407z
m1000 -3 l2 -405 -407 2 -408 3 -2 399 c-1 219 -1 402 1 405 2 3 186 5 408 4
l403 -3 3 -405z m-18718 -35 l0 -410 -405 0 -405 0 0 410 0 410 405 0 405 0 0
-410z m1000 0 l0 -410 -405 0 -405 0 0 410 0 410 405 0 405 0 0 -410z m1000 0
l0 -410 -405 0 -405 0 0 410 0 410 405 0 405 0 0 -410z m1000 0 l0 -410 -407
2 -408 3 -3 395 c-1 217 0 401 3 407 3 10 94 13 410 13 l405 0 0 -410z m1000
0 l0 -410 -407 2 -408 3 -3 395 c-1 217 0 401 3 407 3 10 94 13 410 13 l405 0
0 -410z m1000 0 l0 -410 -407 2 -408 3 -2 400 c0 220 1 403 4 407 2 5 186 8
409 8 l404 0 0 -410z m1000 0 l0 -410 -407 2 -408 3 -3 395 c-1 217 0 401 3
407 3 10 94 13 410 13 l405 0 0 -410z m1000 0 l0 -410 -410 0 -410 0 0 403 c0
222 3 407 7 410 3 4 188 7 410 7 l403 0 0 -410z m998 -3 l2 -407 -407 2 -408
3 -3 395 c-1 217 0 401 3 408 3 10 90 12 407 10 l403 -3 3 -408z m1000 -2 l2
-405 -407 2 -408 3 -2 399 c-2 219 -1 401 1 405 2 3 186 5 408 4 l403 -3 3
-405z m10602 -35 l0 -410 -405 0 -405 0 0 410 0 410 405 0 405 0 0 -410z
m1000 0 l0 -410 -405 0 -405 0 0 410 0 410 405 0 405 0 0 -410z m1000 0 l0
-410 -405 0 -405 0 0 410 0 410 405 0 405 0 0 -410z m1000 0 l0 -410 -407 2
-408 3 -3 395 c-1 217 0 401 3 407 3 10 94 13 410 13 l405 0 0 -410z m1000 0
l0 -410 -407 2 -408 3 -3 395 c-1 217 0 401 3 407 3 10 94 13 410 13 l405 0 0
-410z m1000 0 l0 -410 -407 2 -408 3 -2 399 c-2 219 0 402 3 407 3 5 187 9
410 9 l404 0 0 -410z m1000 0 l0 -410 -407 2 -408 3 -3 395 c-1 217 0 401 3
407 3 10 94 13 410 13 l405 0 0 -410z m1000 0 l0 -410 -410 0 -410 0 0 403 c0
222 3 407 7 410 3 4 188 7 410 7 l403 0 0 -410z m998 -3 l2 -407 -407 2 -408
3 -3 395 c-1 217 0 401 3 408 3 10 90 12 407 10 l403 -3 3 -408z m1000 -2 l2
-405 -404 0 c-352 0 -405 2 -410 15 -6 17 -8 790 -2 796 3 2 186 3 408 2 l403
-3 3 -405z m10852 -5 l0 -410 -405 0 -405 0 0 410 0 410 405 0 405 0 0 -410z
m1000 0 l0 -410 -405 0 -405 0 0 410 0 410 405 0 405 0 0 -410z m1000 0 l0
-410 -405 0 -405 0 0 410 0 410 405 0 405 0 0 -410z m1000 0 l0 -410 -407 2
-408 3 -3 395 c-1 217 0 401 3 407 3 10 94 13 410 13 l405 0 0 -410z m1000 0
l0 -410 -407 2 -408 3 -3 395 c-1 217 0 401 3 407 3 10 94 13 410 13 l405 0 0
-410z m1000 0 l0 -410 -407 2 -408 3 -3 394 c-2 217 -1 400 2 408 4 10 81 13
411 13 l405 0 0 -410z m1000 0 l0 -410 -407 2 -408 3 -3 395 c-1 217 0 401 3
407 3 10 94 13 410 13 l405 0 0 -410z m1000 0 l0 -410 -410 0 -410 0 0 403 c0
222 3 407 7 410 3 4 188 7 410 7 l403 0 0 -410z m998 -3 l2 -407 -407 2 -408
3 -3 395 c-1 217 0 401 3 408 3 10 90 12 407 10 l403 -3 3 -408z m1000 -2 l2
-405 -407 2 -408 3 -3 395 c-1 217 -1 399 1 405 3 7 134 9 408 8 l404 -2 3
-406z m-18968 -25 l0 -410 -405 0 -405 0 0 410 0 410 405 0 405 0 0 -410z
m1000 0 l0 -410 -405 0 -405 0 0 410 0 410 405 0 405 0 0 -410z m1000 0 l0
-410 -405 0 -405 0 0 410 0 410 405 0 405 0 0 -410z m1000 0 l0 -410 -407 2
-408 3 -3 395 c-1 217 0 401 3 407 3 10 94 13 410 13 l405 0 0 -410z m1000 0
l0 -410 -407 2 -408 3 -3 395 c-1 217 0 401 3 407 3 10 94 13 410 13 l405 0 0
-410z m1000 0 l0 -410 -407 2 -408 3 -2 400 c-1 220 1 403 3 407 3 5 187 8
410 8 l404 0 0 -410z m1000 0 l0 -410 -407 2 -408 3 -3 395 c-1 217 0 401 3
407 3 10 94 13 410 13 l405 0 0 -410z m1000 0 l0 -410 -410 0 -410 0 0 403 c0
222 3 407 7 410 3 4 188 7 410 7 l403 0 0 -410z m1000 0 l0 -410 -410 0 -410
0 0 403 c0 222 3 407 7 410 3 4 188 7 410 7 l403 0 0 -410z m998 -5 l2 -405
-407 2 -408 3 -2 399 c-1 219 -1 402 1 405 2 3 186 5 408 4 l403 -2 3 -406z
m-28758 -875 l0 -410 -335 0 -335 0 0 410 0 410 335 0 335 0 0 -410z m1000 0
l0 -410 -405 0 -405 0 0 410 0 410 405 0 405 0 0 -410z m1000 0 l0 -410 -405
0 -405 0 0 410 0 410 405 0 405 0 0 -410z m1000 0 l0 -410 -407 2 -408 3 -3
395 c-1 217 0 401 3 407 3 10 94 13 410 13 l405 0 0 -410z m1000 0 l0 -410
-407 2 -408 3 -3 395 c-1 217 0 401 3 407 3 10 94 13 410 13 l405 0 0 -410z
m1000 0 l0 -410 -404 0 c-365 0 -404 2 -410 16 -8 20 -7 724 1 772 l5 32 404
0 404 0 0 -410z m1000 0 l0 -410 -407 2 -408 3 -3 395 c-1 217 0 401 3 407 3
10 94 13 410 13 l405 0 0 -410z m998 -3 l2 -407 -407 2 -408 3 -3 395 c-1 217
0 401 3 408 3 10 90 12 407 10 l403 -3 3 -408z m1000 0 l2 -407 -407 2 -408 3
-3 395 c-1 217 0 401 3 408 3 10 90 12 407 10 l403 -3 3 -408z m1002 -3 l0
-404 -407 2 -408 3 -1 400 -2 400 402 5 c220 3 404 4 409 2 4 -2 7 -185 7
-408z m-18720 -34 l0 -410 -405 0 -405 0 0 410 0 410 405 0 405 0 0 -410z
m1000 0 l0 -410 -405 0 -405 0 0 410 0 410 405 0 405 0 0 -410z m1000 0 l0
-410 -405 0 -405 0 0 410 0 410 405 0 405 0 0 -410z m1000 0 l0 -410 -407 2
-408 3 -3 395 c-1 217 0 401 3 407 3 10 94 13 410 13 l405 0 0 -410z m1000 0
l0 -410 -407 2 -408 3 -3 395 c-1 217 0 401 3 407 3 10 94 13 410 13 l405 0 0
-410z m998 -3 l2 -407 -407 2 -408 3 -2 380 c-1 209 1 392 4 408 l5 27 402 -2
401 -3 3 -408z m1000 0 l2 -407 -407 2 -408 3 -3 395 c-1 217 0 401 3 408 3
10 90 12 407 10 l403 -3 3 -408z m1000 0 l2 -407 -407 2 -408 3 -3 395 c-1
217 0 401 3 408 3 10 90 12 407 10 l403 -3 3 -408z m1000 0 l2 -407 -407 2
-408 3 -3 395 c-1 217 0 401 3 408 3 10 90 12 407 10 l403 -3 3 -408z m1002
-3 l0 -404 -407 2 -408 3 -2 400 -3 400 403 5 c221 3 405 4 410 2 4 -2 7 -185
7 -408z m10600 -34 l0 -410 -405 0 -405 0 0 410 0 410 405 0 405 0 0 -410z
m1000 0 l0 -410 -405 0 -405 0 0 410 0 410 405 0 405 0 0 -410z m1000 0 l0
-410 -405 0 -405 0 0 410 0 410 405 0 405 0 0 -410z m1000 0 l0 -410 -407 2
-408 3 -3 395 c-1 217 0 401 3 407 3 10 94 13 410 13 l405 0 0 -410z m998 -3
l2 -407 -407 2 -408 3 -3 395 c-1 217 0 401 3 408 3 10 90 12 407 10 l403 -3
3 -408z m1000 0 l2 -407 -407 2 -408 3 -2 400 c0 220 1 403 4 408 2 4 185 6
406 5 l402 -3 3 -408z m1002 3 l0 -410 -407 2 -408 3 -3 395 c-1 217 0 401 3
407 3 10 94 13 410 13 l405 0 0 -410z m998 -3 l2 -407 -407 2 -408 3 -3 395
c-1 217 0 401 3 408 3 10 90 12 407 10 l403 -3 3 -408z m1000 0 l2 -407 -407
2 -408 3 -3 395 c-1 217 0 401 3 408 3 10 90 12 407 10 l403 -3 3 -408z m1002
-3 l0 -404 -407 2 -408 3 -2 400 -1 400 401 5 c221 3 405 4 410 2 4 -2 7 -185
7 -408z m10850 -4 l0 -410 -405 0 -405 0 0 410 0 410 405 0 405 0 0 -410z
m1000 0 l0 -410 -405 0 -405 0 0 410 0 410 405 0 405 0 0 -410z m1000 0 l0
-410 -405 0 -405 0 0 410 0 410 405 0 405 0 0 -410z m1000 0 l0 -410 -407 2
-408 3 -3 395 c-1 217 0 401 3 407 3 10 94 13 410 13 l405 0 0 -410z m1000 0
l0 -410 -407 2 -408 3 -3 395 c-1 217 0 401 3 407 3 10 94 13 410 13 l405 0 0
-410z m1000 0 l0 -410 -404 0 -404 0 -6 26 c-8 30 -7 727 1 767 l5 27 404 0
404 0 0 -410z m1000 0 l0 -410 -407 2 -408 3 -3 395 c-1 217 0 401 3 407 3 10
94 13 410 13 l405 0 0 -410z m1000 0 l0 -410 -407 2 -408 3 -3 395 c-1 217 0
401 3 407 3 10 94 13 410 13 l405 0 0 -410z m998 -3 l2 -407 -407 2 -408 3 -3
395 c-1 217 0 401 3 408 3 10 90 12 407 10 l403 -3 3 -408z m1002 -3 l0 -404
-407 2 -408 3 -2 400 -2 400 402 5 c221 3 405 4 410 2 4 -2 7 -185 7 -408z
m-18970 -24 l0 -410 -405 0 -405 0 0 410 0 410 405 0 405 0 0 -410z m1000 0
l0 -410 -405 0 -405 0 0 410 0 410 405 0 405 0 0 -410z m1000 0 l0 -410 -405
0 -405 0 0 410 0 410 405 0 405 0 0 -410z m1000 0 l0 -410 -407 2 -408 3 -3
395 c-1 217 0 401 3 407 3 10 94 13 410 13 l405 0 0 -410z m1000 0 l0 -410
-407 2 -408 3 -3 395 c-1 217 0 401 3 407 3 10 94 13 410 13 l405 0 0 -410z
m1000 0 l0 -410 -407 2 -408 3 -2 394 c-1 216 1 400 4 407 4 12 74 14 409 14
l404 0 0 -410z m1000 0 l0 -410 -407 2 -408 3 -3 395 c-1 217 0 401 3 407 3
10 94 13 410 13 l405 0 0 -410z m998 -3 l2 -407 -407 2 -408 3 -3 395 c-1 217
0 401 3 408 3 10 90 12 407 10 l403 -3 3 -408z m1000 0 l2 -407 -407 2 -408 3
-3 395 c-1 217 0 401 3 408 3 10 90 12 407 10 l403 -3 3 -408z m1002 -3 l0
-404 -407 2 -408 3 -2 400 -2 400 402 5 c221 3 405 4 410 2 4 -2 7 -185 7
-408z m-28760 -874 l0 -410 -335 0 -335 0 0 410 0 410 335 0 335 0 0 -410z
m1000 0 l0 -410 -405 0 -405 0 0 410 0 410 405 0 405 0 0 -410z m1000 0 l0
-410 -405 0 -405 0 0 410 0 410 405 0 405 0 0 -410z m1000 0 l0 -410 -407 2
-408 3 -3 395 c-1 217 0 401 3 407 3 10 94 13 410 13 l405 0 0 -410z m998 -2
l2 -408 -404 0 c-359 0 -405 2 -410 16 -8 22 -8 789 1 797 4 4 187 6 407 5
l401 -3 3 -407z m1002 2 l0 -410 -404 0 c-331 0 -405 2 -409 14 -8 20 -9 750
-1 780 l6 26 404 0 404 0 0 -410z m998 -3 l2 -407 -407 2 -408 3 -3 395 c-1
217 0 401 3 408 3 10 90 12 407 10 l403 -3 3 -408z m1002 3 l0 -410 -407 2
-408 3 -3 395 c-1 217 0 401 3 407 3 10 94 13 410 13 l405 0 0 -410z m998 -3
l2 -407 -407 2 -408 3 -3 395 c-1 217 0 401 3 408 3 10 90 12 407 10 l403 -3
3 -408z m1000 1 l2 -408 -404 0 c-333 0 -405 2 -409 14 -8 21 -9 791 0 799 4
4 187 6 407 5 l401 -3 3 -407z m-18718 -38 l0 -410 -405 0 -405 0 0 410 0 410
405 0 405 0 0 -410z m1000 0 l0 -410 -405 0 -405 0 0 410 0 410 405 0 405 0 0
-410z m1000 0 l0 -410 -405 0 -405 0 0 410 0 410 405 0 405 0 0 -410z m1000 0
l0 -410 -407 2 -408 3 -3 395 c-1 217 0 401 3 407 3 10 94 13 410 13 l405 0 0
-410z m1000 0 l0 -410 -407 2 -408 3 -2 395 c-2 217 -1 401 2 408 3 9 95 12
410 12 l405 0 0 -410z m1000 0 l0 -410 -407 2 -408 3 -2 399 c-1 220 0 403 3
408 3 4 187 8 410 8 l404 0 0 -410z m1000 0 l0 -410 -407 2 -408 3 -3 395 c-1
217 0 401 3 407 3 10 94 13 410 13 l405 0 0 -410z m1000 0 l0 -410 -407 2
-408 3 -3 395 c-1 217 0 401 3 407 3 10 94 13 410 13 l405 0 0 -410z m998 -3
l2 -407 -407 2 -408 3 -3 395 c-1 217 0 401 3 408 3 10 90 12 407 10 l403 -3
3 -408z m1000 0 l2 -407 -407 2 -408 3 -2 395 c-2 217 -1 401 2 407 3 10 94
12 407 10 l403 -2 3 -408z m10602 -37 l0 -410 -405 0 -405 0 0 410 0 410 405
0 405 0 0 -410z m1000 0 l0 -410 -405 0 -405 0 0 410 0 410 405 0 405 0 0
-410z m1000 0 l0 -410 -405 0 -405 0 0 410 0 410 405 0 405 0 0 -410z m1000 0
l0 -410 -407 2 -408 3 -3 395 c-1 217 0 401 3 407 3 10 94 13 410 13 l405 0 0
-410z m1000 0 l0 -410 -407 2 -408 3 -3 395 c-1 217 0 401 3 407 3 10 94 13
410 13 l405 0 0 -410z m1000 0 l0 -410 -404 0 c-331 0 -405 2 -409 14 -8 20
-9 750 -1 780 l6 26 404 0 404 0 0 -410z m1000 0 l0 -410 -407 2 -408 3 -3
395 c-1 217 0 401 3 407 3 10 94 13 410 13 l405 0 0 -410z m1000 0 l0 -410
-407 2 -408 3 -3 395 c-1 217 0 401 3 407 3 10 94 13 410 13 l405 0 0 -410z
m998 -3 l2 -407 -407 2 -408 3 -3 395 c-1 217 0 401 3 408 3 10 90 12 407 10
l403 -3 3 -408z m1000 1 l2 -408 -404 0 c-333 0 -405 2 -409 14 -8 20 -9 791
-1 799 4 3 187 5 408 4 l401 -2 3 -407z m10852 -8 l0 -410 -405 0 -405 0 0
410 0 410 405 0 405 0 0 -410z m1000 0 l0 -410 -405 0 -405 0 0 410 0 410 405
0 405 0 0 -410z m1000 0 l0 -410 -405 0 -405 0 0 410 0 410 405 0 405 0 0
-410z m1000 0 l0 -410 -407 2 -408 3 -3 395 c-1 217 0 401 3 407 3 10 94 13
410 13 l405 0 0 -410z m998 -3 l2 -407 -407 2 -408 3 -3 395 c-1 217 0 401 3
408 3 10 90 12 407 10 l403 -3 3 -408z m1000 1 l2 -408 -404 0 -404 0 -5 22
c-9 32 -9 783 0 791 3 4 187 6 407 5 l401 -3 3 -407z m1000 -1 l2 -407 -407 2
-408 3 -3 395 c-1 217 0 401 3 408 3 10 90 12 407 10 l403 -3 3 -408z m1000 0
l2 -407 -407 2 -408 3 -3 395 c-1 217 0 401 3 408 3 10 90 12 407 10 l403 -3
3 -408z m1000 0 l2 -407 -407 2 -408 3 -3 395 c-1 217 0 401 3 408 3 10 90 12
407 10 l403 -3 3 -408z m1000 1 l2 -408 -404 0 -404 0 -5 22 c-9 32 -9 783 0
791 4 4 187 6 407 5 l401 -3 3 -407z m-18968 -28 l0 -410 -405 0 -405 0 0 410
0 410 405 0 405 0 0 -410z m1000 0 l0 -410 -405 0 -405 0 0 410 0 410 405 0
405 0 0 -410z m1000 0 l0 -410 -405 0 -405 0 0 410 0 410 405 0 405 0 0 -410z
m1000 0 l0 -410 -407 2 -408 3 -3 395 c-1 217 0 401 3 407 3 10 94 13 410 13
l405 0 0 -410z m1000 0 l0 -410 -407 2 -408 3 -2 395 c-2 217 -1 401 2 408 3
9 95 12 410 12 l405 0 0 -410z m998 -2 l2 -408 -404 0 -404 0 -6 26 c-8 32 -7
780 2 788 3 4 186 5 406 4 l401 -3 3 -407z m1002 2 l0 -410 -407 2 -408 3 -3
395 c-1 217 0 401 3 407 3 10 94 13 410 13 l405 0 0 -410z m1000 0 l0 -410
-407 2 -408 3 -3 395 c-1 217 0 401 3 407 3 10 94 13 410 13 l405 0 0 -410z
m998 -3 l2 -407 -407 2 -408 3 -3 395 c-1 217 0 401 3 408 3 10 90 12 407 10
l403 -3 3 -408z m1000 1 l2 -408 -404 0 -404 0 -6 23 c-8 33 -7 783 1 791 4 4
187 5 408 4 l400 -3 3 -407z m-28758 -883 l0 -405 -335 0 -335 0 0 405 0 405
335 0 335 0 0 -405z m1000 0 l0 -405 -405 0 -405 0 0 405 0 405 405 0 405 0 0
-405z m1000 0 l0 -405 -405 0 -405 0 0 405 0 405 405 0 405 0 0 -405z m1000 0
l0 -405 -407 2 -408 3 -3 403 -2 402 410 0 410 0 0 -405z m1000 0 l0 -405
-407 2 -408 3 -2 403 -2 402 409 0 410 0 0 -405z m1000 0 l0 -405 -407 2 -408
3 -2 375 c-1 206 1 387 4 403 l5 27 404 0 404 0 0 -405z m1000 0 l0 -405 -410
0 -410 0 0 405 0 405 410 0 410 0 0 -405z m1000 0 l0 -405 -410 0 -410 0 0
405 0 405 410 0 410 0 0 -405z m1000 0 l0 -405 -410 0 -410 0 0 405 0 405 410
0 410 0 0 -405z m1000 0 l0 -405 -407 2 -408 3 -1 395 c-1 217 0 398 3 403 2
4 186 7 409 7 l404 0 0 -405z m-18720 -40 l0 -405 -405 0 -405 0 0 405 0 405
405 0 405 0 0 -405z m1000 0 l0 -405 -405 0 -405 0 0 405 0 405 405 0 405 0 0
-405z m1000 0 l0 -405 -405 0 -405 0 0 405 0 405 405 0 405 0 0 -405z m1000 0
l0 -405 -407 2 -408 3 -3 403 -2 402 410 0 410 0 0 -405z m1000 0 l0 -405
-407 2 -408 3 -3 403 -2 402 410 0 410 0 0 -405z m1000 0 l0 -405 -407 2 -408
3 -2 372 c-2 205 0 386 3 403 l7 30 403 0 404 0 0 -405z m1000 0 l0 -405 -410
0 -410 0 0 405 0 405 410 0 410 0 0 -405z m1000 0 l0 -405 -410 0 -410 0 0
405 0 405 410 0 410 0 0 -405z m1000 0 l0 -405 -410 0 -410 0 0 405 0 405 410
0 410 0 0 -405z m1000 0 l0 -405 -407 2 -408 3 -3 389 c-1 215 0 396 2 403 4
10 87 13 411 13 l405 0 0 -405z m10600 -40 l0 -405 -405 0 -405 0 0 405 0 405
405 0 405 0 0 -405z m1000 0 l0 -405 -405 0 -405 0 0 405 0 405 405 0 405 0 0
-405z m1000 0 l0 -405 -405 0 -405 0 0 405 0 405 405 0 405 0 0 -405z m1000 0
l0 -405 -407 2 -408 3 -3 403 -2 402 410 0 410 0 0 -405z m1000 0 l0 -405
-407 2 -408 3 -3 403 -2 402 410 0 410 0 0 -405z m1000 0 l0 -405 -407 2 -408
3 -2 394 c-1 217 0 398 3 403 3 4 187 8 410 8 l404 0 0 -405z m1000 0 l0 -405
-410 0 -410 0 0 405 0 405 410 0 410 0 0 -405z m1000 0 l0 -405 -410 0 -410 0
0 405 0 405 410 0 410 0 0 -405z m1000 0 l0 -405 -410 0 -410 0 0 405 0 405
410 0 410 0 0 -405z m1000 0 l0 -405 -407 2 -408 3 -2 395 c-1 217 1 398 3
402 3 4 187 8 410 8 l404 0 0 -405z m10850 -10 l0 -405 -405 0 -405 0 0 405 0
405 405 0 405 0 0 -405z m1000 0 l0 -405 -405 0 -405 0 0 405 0 405 405 0 405
0 0 -405z m1000 0 l0 -405 -405 0 -405 0 0 405 0 405 405 0 405 0 0 -405z
m1000 0 l0 -405 -407 2 -408 3 -3 403 -2 402 410 0 410 0 0 -405z m1000 0 l0
-405 -407 2 -408 3 -3 403 -2 402 410 0 410 0 0 -405z m1000 0 l0 -405 -404 0
c-359 0 -405 2 -410 16 -8 21 -8 708 0 757 l7 37 403 0 404 0 0 -405z m1000 0
l0 -405 -410 0 -410 0 0 405 0 405 410 0 410 0 0 -405z m1000 0 l0 -405 -410
0 -410 0 0 405 0 405 410 0 410 0 0 -405z m1000 0 l0 -405 -410 0 -410 0 0
405 0 405 410 0 410 0 0 -405z m1000 0 l0 -405 -404 0 c-367 0 -404 2 -410 17
-8 21 -7 779 1 787 4 3 188 6 410 6 l403 0 0 -405z m-18970 -30 l0 -405 -405
0 -405 0 0 405 0 405 405 0 405 0 0 -405z m1000 0 l0 -405 -405 0 -405 0 0
405 0 405 405 0 405 0 0 -405z m1000 0 l0 -405 -405 0 -405 0 0 405 0 405 405
0 405 0 0 -405z m1000 0 l0 -405 -407 2 -408 3 -3 403 -2 402 410 0 410 0 0
-405z m1000 0 l0 -405 -407 2 -408 3 -3 403 -2 402 410 0 410 0 0 -405z m1000
0 l0 -405 -407 2 -408 3 -3 370 c-2 204 0 385 3 403 l6 32 404 0 405 0 0 -405z
m1000 0 l0 -405 -410 0 -410 0 0 405 0 405 410 0 410 0 0 -405z m1000 0 l0
-405 -410 0 -410 0 0 405 0 405 410 0 410 0 0 -405z m1000 0 l0 -405 -410 0
-410 0 0 405 0 405 410 0 410 0 0 -405z m1000 0 l0 -405 -407 2 -408 3 -2 393
c-2 217 0 398 3 403 3 5 181 9 410 9 l404 0 0 -405z m-28760 -880 l0 -405
-335 0 -335 0 0 405 0 405 335 0 335 0 0 -405z m1000 0 l0 -405 -405 0 -405 0
0 405 0 405 405 0 405 0 0 -405z m1000 0 l0 -405 -405 0 -405 0 0 405 0 405
405 0 405 0 0 -405z m1000 0 l0 -405 -407 2 -408 3 -3 403 -2 402 410 0 410 0
0 -405z m1000 0 l0 -405 -407 2 -408 3 -2 403 -2 402 409 0 410 0 0 -405z
m1000 0 l0 -405 -407 2 -408 3 -2 403 -3 402 410 0 410 0 0 -405z m1000 0 l0
-405 -410 0 -410 0 0 405 0 405 410 0 410 0 0 -405z m1000 0 l0 -405 -410 0
-410 0 0 405 0 405 410 0 410 0 0 -405z m1000 0 l0 -405 -410 0 -410 0 0 405
0 405 410 0 410 0 0 -405z m1000 0 l0 -405 -407 2 -408 3 -3 403 -3 402 411 0
410 0 0 -405z m-18720 -40 l0 -405 -405 0 -405 0 0 405 0 405 405 0 405 0 0
-405z m1000 0 l0 -405 -405 0 -405 0 0 405 0 405 405 0 405 0 0 -405z m1000 0
l0 -405 -405 0 -405 0 0 405 0 405 405 0 405 0 0 -405z m1000 0 l0 -405 -410
0 -410 0 0 405 1 405 409 0 410 0 0 -405z m1000 0 l0 -405 -407 2 -408 3 -3
403 -2 402 410 0 410 0 0 -405z m1000 0 l0 -405 -404 0 -404 0 -6 35 c-4 20
-6 202 -5 405 l1 370 409 0 409 0 0 -405z m1000 0 l0 -405 -410 0 -410 0 0
405 0 405 410 0 410 0 0 -405z m1000 0 l0 -405 -410 0 -410 0 0 405 0 405 410
0 410 0 0 -405z m1000 0 l0 -405 -410 0 -410 0 0 405 0 405 410 0 410 0 0
-405z m1000 0 l0 -405 -407 2 -408 3 -2 403 -2 402 409 0 410 0 0 -405z
m10600 -40 l0 -405 -405 0 -405 0 0 405 0 405 405 0 405 0 0 -405z m1000 0 l0
-405 -405 0 -405 0 0 405 0 405 405 0 405 0 0 -405z m1000 0 l0 -405 -405 0
-405 0 0 405 0 405 405 0 405 0 0 -405z m1000 0 l0 -405 -410 0 -410 0 0 405
1 405 409 0 410 0 0 -405z m1000 0 l0 -405 -407 2 -408 3 -3 403 -2 402 410 0
410 0 0 -405z m1000 0 l0 -405 -404 0 -404 0 -6 25 c-4 14 -6 196 -6 405 l1
380 409 0 410 0 0 -405z m1000 0 l0 -405 -407 2 -408 3 -3 403 -2 402 410 0
410 0 0 -405z m1000 0 l0 -405 -410 0 -410 0 0 405 0 405 410 0 410 0 0 -405z
m1000 0 l0 -405 -410 0 -410 0 0 405 0 405 410 0 410 0 0 -405z m1000 0 l0
-405 -407 2 -408 3 -3 403 -3 402 411 0 410 0 0 -405z m10850 -10 l0 -405
-405 0 -405 0 0 405 0 405 405 0 405 0 0 -405z m1000 0 l0 -405 -405 0 -405 0
0 405 0 405 405 0 405 0 0 -405z m1000 0 l0 -405 -405 0 -405 0 0 405 0 405
405 0 405 0 0 -405z m1000 0 l0 -405 -410 0 -410 0 0 405 0 405 410 0 410 0 0
-405z m1000 0 l0 -405 -407 2 -408 3 -2 403 -2 402 409 0 410 0 0 -405z m1000
0 l0 -405 -407 2 -408 3 -2 403 -3 402 410 0 410 0 0 -405z m1000 0 l0 -405
-410 0 -410 0 0 405 0 405 410 0 410 0 0 -405z m1000 0 l0 -405 -410 0 -410 0
0 405 0 405 410 0 410 0 0 -405z m1000 0 l0 -405 -410 0 -410 0 0 405 0 405
410 0 410 0 0 -405z m1000 0 l0 -405 -407 2 -408 3 -3 403 -3 402 411 0 410 0
0 -405z m-18970 -30 l0 -405 -405 0 -405 0 0 405 0 405 405 0 405 0 0 -405z
m1000 0 l0 -405 -405 0 -405 0 0 405 0 405 405 0 405 0 0 -405z m1000 0 l0
-405 -405 0 -405 0 0 405 0 405 405 0 405 0 0 -405z m1000 0 l0 -405 -407 2
-408 3 -3 403 -2 402 410 0 410 0 0 -405z m1000 0 l0 -405 -407 2 -408 3 -2
403 -2 402 409 0 410 0 0 -405z m1000 0 l0 -405 -407 2 -408 3 -2 403 -2 402
409 0 410 0 0 -405z m1000 0 l0 -405 -410 0 -410 0 0 405 0 405 410 0 410 0 0
-405z m1000 0 l0 -405 -410 0 -410 0 0 405 0 405 410 0 410 0 0 -405z m1000 0
l0 -405 -410 0 -410 0 0 405 0 405 410 0 410 0 0 -405z m1000 0 l0 -405 -407
2 -408 3 -2 403 -2 402 409 0 410 0 0 -405z m-25760 -880 l0 -405 -410 0 -410
0 0 403 c0 222 2 406 4 408 2 2 187 3 410 1 l406 -2 0 -405z m3000 0 l0 -405
-410 0 -410 0 0 403 c0 222 2 406 4 408 2 2 187 3 410 1 l406 -2 0 -405z
m2000 0 l0 -405 -410 0 -410 0 0 403 c0 222 2 406 4 408 2 2 187 3 410 1 l406
-2 0 -405z m-8000 0 l0 -405 -335 0 -335 0 0 405 0 405 335 0 335 0 0 -405z
m1000 0 l0 -405 -405 0 -405 0 0 405 0 405 405 0 405 0 0 -405z m1000 0 l0
-405 -405 0 -405 0 0 405 0 405 405 0 405 0 0 -405z m2000 0 l0 -405 -407 2
-408 3 -3 403 -2 402 410 0 410 0 0 -405z m1000 0 l0 -405 -407 2 -408 3 -2
403 -2 402 410 0 409 0 0 -405z m2000 0 l0 -405 -410 0 -410 0 0 405 0 405
410 0 410 0 0 -405z m2000 0 l0 -405 -407 2 -408 3 -2 403 -2 402 409 0 410 0
0 -405z m-18720 -40 l0 -405 -405 0 -405 0 0 405 0 405 405 0 405 0 0 -405z
m1000 0 l0 -405 -405 0 -405 0 0 405 0 405 405 0 405 0 0 -405z m1000 0 l0
-405 -405 0 -405 0 0 405 0 405 405 0 405 0 0 -405z m1000 0 l0 -405 -410 0
-410 0 0 405 1 405 409 0 410 0 0 -405z m1000 0 l0 -405 -407 2 -408 3 -3 403
-2 402 410 0 410 0 0 -405z m1000 0 l0 -405 -407 2 -408 3 -1 403 -2 402 409
0 409 0 0 -405z m1000 0 l0 -405 -410 0 -410 0 0 405 0 405 410 0 410 0 0
-405z m1000 0 l0 -405 -410 0 -410 0 0 405 0 405 410 0 410 0 0 -405z m1000 0
l0 -405 -410 0 -410 0 0 405 0 405 410 0 410 0 0 -405z m1000 0 l0 -405 -407
2 -408 3 -2 403 -2 402 409 0 410 0 0 -405z m18600 -40 l0 -405 -410 0 -410 0
0 403 c0 222 2 406 4 408 2 2 187 3 410 1 l406 -2 0 -405z m-8000 0 l0 -405
-405 0 -405 0 0 405 0 405 405 0 405 0 0 -405z m1000 0 l0 -405 -405 0 -405 0
0 405 0 405 405 0 405 0 0 -405z m1000 0 l0 -405 -405 0 -405 0 0 405 0 405
405 0 405 0 0 -405z m1000 0 l0 -405 -410 0 -410 0 0 405 0 405 410 0 410 0 0
-405z m1000 0 l0 -405 -407 2 -408 3 -3 403 -2 402 410 0 410 0 0 -405z m1000
0 l0 -405 -404 0 -404 0 -6 35 c-4 19 -6 202 -5 405 l1 370 409 0 409 0 0
-405z m1000 0 l0 -405 -410 0 -410 0 0 405 0 405 410 0 410 0 0 -405z m1000 0
l0 -405 -410 0 -410 0 0 405 0 405 410 0 410 0 0 -405z m2000 0 l0 -405 -407
2 -408 3 -2 403 -2 402 410 0 409 0 0 -405z m10850 -10 l0 -405 -405 0 -405 0
0 405 0 405 405 0 405 0 0 -405z m1000 0 l0 -405 -405 0 -405 0 0 405 0 405
405 0 405 0 0 -405z m1000 0 l0 -405 -405 0 -405 0 0 405 0 405 405 0 405 0 0
-405z m1000 0 l0 -405 -410 0 -410 0 0 405 0 405 410 0 410 0 0 -405z m1000 0
l0 -405 -407 2 -408 3 -3 403 -2 402 410 0 410 0 0 -405z m1000 0 l0 -405
-404 0 -404 0 -6 26 c-4 15 -6 197 -5 405 l1 379 409 0 409 0 0 -405z m1000 0
l0 -405 -410 0 -410 0 0 405 0 405 410 0 410 0 0 -405z m1000 0 l0 -405 -410
0 -410 0 0 405 0 405 410 0 410 0 0 -405z m1000 0 l0 -405 -410 0 -410 0 0
405 0 405 410 0 410 0 0 -405z m1000 0 l0 -405 -407 2 -408 3 -2 403 -2 402
409 0 410 0 0 -405z m-18970 -30 l0 -405 -405 0 -405 0 0 405 0 405 405 0 405
0 0 -405z m1000 0 l0 -405 -405 0 -405 0 0 405 0 405 405 0 405 0 0 -405z
m1000 0 l0 -405 -405 0 -405 0 0 405 0 405 405 0 405 0 0 -405z m1000 0 l0
-405 -410 0 -410 0 0 405 0 405 410 0 410 0 0 -405z m1000 0 l0 -405 -410 0
-410 0 0 405 0 405 410 0 410 0 0 -405z m1000 0 l0 -405 -407 2 -408 3 -2 403
-1 402 409 0 409 0 0 -405z m1000 0 l0 -405 -410 0 -410 0 0 405 0 405 410 0
410 0 0 -405z m1000 0 l0 -405 -410 0 -410 0 0 405 0 405 410 0 410 0 0 -405z
m1000 0 l0 -405 -410 0 -410 0 0 405 0 405 410 0 410 0 0 -405z m1000 0 l0
-405 -407 2 -408 3 -3 370 c-2 204 0 385 3 403 l6 32 404 0 405 0 0 -405z
m-28762 -877 l2 -408 -335 0 -335 0 0 410 0 410 333 -2 332 -3 3 -407z m1000
0 l2 -408 -405 0 -405 0 0 410 0 410 403 -2 402 -3 3 -407z m1000 0 l2 -408
-405 0 -405 0 0 410 0 410 403 -2 402 -3 3 -407z m1000 -1 l2 -407 -407 2
-408 3 -3 395 c-1 217 0 401 3 408 3 10 90 12 407 10 l403 -3 3 -408z m1000 0
l2 -407 -407 2 -408 3 -3 395 c-1 217 0 401 3 408 3 10 90 12 407 10 l403 -3
3 -408z m1000 1 l2 -408 -404 0 -404 0 -6 23 c-8 30 -7 783 1 791 4 3 187 5
407 4 l401 -3 3 -407z m1000 0 l2 -408 -410 0 -410 0 0 403 c0 222 3 407 7
410 4 4 187 6 407 5 l401 -3 3 -407z m1000 0 l2 -408 -410 0 -410 0 0 403 c0
222 3 407 7 411 4 3 187 5 407 4 l401 -3 3 -407z m1000 0 l2 -408 -410 0 -410
0 0 403 c0 222 3 407 7 410 4 4 187 6 407 5 l401 -3 3 -407z m1002 -3 l0 -405
-407 2 -408 3 -3 403 -3 402 411 0 410 0 0 -405z m-18722 -37 l2 -408 -405 0
-405 0 0 410 0 410 403 -2 402 -3 3 -407z m1000 0 l2 -408 -405 0 -405 0 0
410 0 410 403 -2 402 -3 3 -407z m1000 0 l2 -408 -405 0 -405 0 0 410 0 410
403 -2 402 -3 3 -407z m1000 -1 l2 -407 -407 2 -408 3 -3 395 c-1 217 0 401 3
408 3 10 90 12 407 10 l403 -3 3 -408z m1000 0 l2 -407 -407 2 -408 3 -2 399
c-1 219 0 403 3 408 3 4 186 7 407 6 l402 -3 3 -408z m1000 0 l2 -407 -407 2
-408 3 -2 400 c-1 220 1 403 4 407 2 5 185 7 406 6 l402 -3 3 -408z m1000 1
l2 -408 -410 0 -410 0 0 403 c0 222 3 407 7 410 4 4 187 6 407 5 l401 -3 3
-407z m1000 0 l2 -408 -410 0 -410 0 0 403 c0 222 3 407 7 410 4 4 187 6 407
5 l401 -3 3 -407z m1000 0 l2 -408 -410 0 -410 0 0 403 c0 222 3 407 7 410 4
4 187 6 407 5 l401 -3 3 -407z m1002 -3 l0 -405 -407 2 -408 3 -2 403 -1 402
409 0 409 0 0 -405z m10598 -37 l2 -408 -405 0 -405 0 0 410 0 410 403 -2 402
-3 3 -407z m1000 0 l2 -408 -405 0 -405 0 0 410 0 410 403 -2 402 -3 3 -407z
m1000 0 l2 -408 -405 0 -405 0 0 410 0 411 403 -3 402 -3 3 -407z m1002 2 l0
-410 -407 2 -408 3 -3 395 c-1 217 0 401 3 407 3 10 94 13 410 13 l405 0 0
-410z m998 -3 l2 -407 -407 2 -408 3 -2 399 c-1 219 0 403 3 408 3 5 183 7
407 6 l402 -3 3 -408z m1000 1 l2 -408 -404 0 -404 0 -6 23 c-7 27 -7 777 0
789 3 4 186 7 407 6 l402 -3 3 -407z m1002 1 l0 -409 -407 2 -408 3 -3 395
c-1 217 0 401 3 408 3 10 91 12 410 12 l405 -1 0 -410z m1000 1 l0 -410 -410
0 -410 0 0 403 c0 222 3 407 7 410 3 4 188 7 410 7 l403 0 0 -410z m998 -3 l2
-407 -407 2 -408 3 -3 395 c-1 217 0 401 3 408 3 10 90 12 407 10 l403 -3 3
-408z m1002 -2 l0 -405 -404 0 c-345 0 -405 2 -409 15 -4 8 -6 190 -7 405 l0
390 410 0 410 0 0 -405z m10850 -5 l0 -410 -405 0 -405 0 0 410 0 410 405 0
405 0 0 -410z m998 -2 l2 -408 -405 0 -405 0 0 410 0 410 403 -2 402 -3 3
-407z m1002 2 l0 -410 -405 0 -405 0 0 410 0 410 405 0 405 0 0 -410z m998 -3
l2 -407 -407 2 -408 3 -3 395 c-1 217 0 401 3 408 3 10 90 12 407 10 l403 -3
3 -408z m1000 0 l2 -407 -407 2 -408 3 -3 395 c-1 217 0 401 3 408 3 10 90 12
407 10 l403 -3 3 -408z m1000 0 l2 -407 -407 2 -408 3 -3 375 c-2 206 0 390 3
408 l6 32 402 -2 402 -3 3 -408z m1000 0 l2 -407 -407 2 -408 3 -3 395 c-1
217 0 401 3 408 3 10 90 12 407 10 l403 -3 3 -408z m1000 1 l2 -408 -410 0
-410 0 0 403 c0 222 3 407 7 410 4 4 187 6 407 5 l401 -3 3 -407z m1000 0 l2
-408 -410 0 -410 0 0 403 c0 222 3 407 7 410 4 4 187 6 407 5 l401 -3 3 -407z
m1002 -3 l0 -405 -407 2 -408 3 -3 403 -2 402 410 0 410 0 0 -405z m-18972
-27 l2 -408 -405 0 -405 0 0 410 0 409 403 -2 402 -2 3 -407z m1000 0 l2 -408
-405 0 -405 0 0 410 0 409 403 -2 402 -2 3 -407z m1002 2 l0 -410 -405 0 -405
0 0 410 0 409 405 1 405 0 0 -410z m998 -3 l2 -407 -407 2 -408 3 -3 395 c-1
217 0 401 3 408 3 10 90 12 407 10 l403 -3 3 -408z m1000 0 l2 -407 -407 2
-408 3 -2 400 c-1 219 1 403 3 407 3 4 186 6 407 5 l402 -2 3 -408z m1000 0
l2 -407 -407 2 -408 3 -2 399 c-1 220 1 404 3 408 3 5 186 7 407 6 l402 -3 3
-408z m1002 3 l0 -410 -410 0 -410 0 0 403 c0 222 3 406 6 410 4 3 188 6 410
7 l404 0 0 -410z m998 -2 l2 -408 -410 0 -410 0 0 403 c0 222 3 407 7 410 4 4
187 6 407 5 l401 -3 3 -407z m1000 0 l2 -408 -410 0 -410 0 0 403 c0 222 3
407 7 410 4 4 187 6 407 5 l401 -3 3 -407z m1002 -3 l0 -405 -407 2 -408 3 -2
403 -2 402 410 0 409 0 0 -405z m-28762 -877 l2 -408 -335 0 -335 0 0 410 0
410 333 -2 332 -3 3 -407z m1000 0 l2 -408 -405 0 -405 0 0 410 0 410 403 -2
402 -3 3 -407z m1000 0 l2 -408 -405 0 -405 0 0 410 0 409 403 -2 402 -2 3
-407z m1000 -1 l2 -407 -407 2 -408 3 -3 395 c-1 217 0 401 3 408 4 10 87 12
407 10 l403 -3 3 -408z m1000 0 l2 -407 -407 2 -408 3 -2 395 c-2 217 -1 400
2 407 3 9 104 11 407 10 l403 -2 3 -408z m1000 0 l2 -407 -407 2 -408 3 -2
400 c0 220 1 403 4 408 2 4 185 6 406 5 l402 -3 3 -408z m1000 0 l2 -407 -407
2 -408 3 -3 395 c-1 217 0 400 2 407 4 10 98 12 408 10 l403 -2 3 -408z m1000
1 l2 -408 -410 0 -410 0 0 403 c0 222 3 407 7 410 4 4 187 6 407 5 l401 -3 3
-407z m1000 -1 l2 -407 -407 2 -408 3 -3 395 c-1 217 0 400 2 407 4 9 105 11
408 10 l403 -2 3 -408z m1002 -2 l0 -405 -407 2 -408 3 -2 403 -2 402 410 0
409 0 0 -405z m-18722 -37 l2 -408 -405 0 -405 0 0 410 0 411 403 -3 402 -3 3
-407z m1000 0 l2 -408 -405 0 -405 0 0 410 0 409 403 -2 402 -2 3 -407z m1000
0 l2 -408 -405 0 -405 0 0 410 0 410 403 -2 402 -3 3 -407z m1000 -1 l2 -407
-407 2 -408 3 -3 395 c-1 217 0 401 3 408 3 10 90 12 407 10 l403 -3 3 -408z
m1000 0 l2 -407 -407 2 -408 3 -3 395 c-1 217 0 401 3 408 3 10 90 12 407 10
l403 -3 3 -408z m1000 0 l2 -407 -407 2 -408 3 -2 400 c0 220 1 403 3 407 3 4
186 6 407 5 l402 -2 3 -408z m1000 1 l2 -408 -410 0 -410 0 0 403 c0 222 3
407 7 410 4 4 187 6 407 5 l401 -3 3 -407z m1000 0 l2 -408 -410 0 -410 0 0
403 c0 222 3 407 6 410 4 4 187 5 408 4 l401 -2 3 -407z m1000 -1 l2 -407
-407 2 -408 3 -3 395 c-1 217 0 401 3 408 3 10 90 12 407 10 l403 -3 3 -408z
m1002 -2 l0 -405 -407 2 -408 3 -2 403 -2 402 409 0 410 0 0 -405z m10598 -37
l2 -408 -405 0 -405 0 0 410 0 410 403 -3 402 -2 3 -407z m1000 0 l2 -408
-405 0 -405 0 0 410 0 409 403 -2 402 -2 3 -407z m1000 0 l2 -408 -405 0 -405
0 0 410 0 410 403 -2 402 -3 3 -407z m1000 -1 l2 -407 -407 2 -408 3 -3 395
c-1 217 0 401 3 408 3 10 90 12 407 10 l403 -3 3 -408z m1000 0 l2 -407 -407
2 -408 3 -3 395 c-1 217 0 401 3 407 3 10 94 12 407 10 l403 -2 3 -408z m1000
1 l2 -408 -404 0 -404 0 -6 36 c-8 39 -7 764 1 777 2 4 185 6 406 5 l402 -3 3
-407z m1000 -1 l2 -407 -407 2 -408 3 -3 395 c-1 217 0 401 3 408 4 10 87 12
407 10 l403 -3 3 -408z m1000 1 l2 -408 -410 0 -410 0 0 403 c0 222 3 407 6
410 4 4 187 5 408 4 l401 -2 3 -407z m1000 -1 l2 -407 -407 2 -408 3 -3 395
c-1 217 0 401 3 408 3 10 90 12 407 10 l403 -3 3 -408z m1002 -2 l0 -405 -407
2 -408 3 -2 403 -1 402 409 0 409 0 0 -405z m10848 -7 l2 -408 -405 0 -405 0
0 410 0 410 403 -2 402 -3 3 -407z m1000 0 l2 -408 -405 0 -405 0 0 410 0 410
403 -2 402 -3 3 -407z m1000 0 l2 -408 -405 0 -405 0 0 410 0 410 403 -2 402
-3 3 -407z m1000 -1 l2 -407 -407 2 -408 3 -3 395 c-1 217 0 401 3 408 3 10
90 12 407 10 l403 -3 3 -408z m1000 0 l2 -407 -407 2 -408 3 -3 395 c-1 217 0
401 3 408 3 10 90 12 407 10 l403 -3 3 -408z m1000 1 l2 -408 -404 0 c-374 0
-404 1 -411 17 -7 19 -5 783 2 796 2 4 185 6 406 5 l402 -3 3 -407z m1000 0
l2 -408 -410 0 -410 0 0 403 c0 222 3 407 7 410 4 4 187 6 407 5 l401 -3 3
-407z m1000 0 l2 -408 -410 0 -410 0 0 403 c0 222 3 407 7 410 4 4 187 6 407
5 l401 -3 3 -407z m1000 0 l2 -408 -410 0 -410 0 0 403 c0 222 3 407 7 410 4
4 187 6 407 5 l401 -3 3 -407z m1002 -3 l0 -405 -407 2 -408 3 -2 403 -2 402
409 0 410 0 0 -405z m-18972 -27 l2 -408 -405 0 -405 0 0 409 0 410 403 -2
402 -2 3 -407z m1000 0 l2 -408 -405 0 -405 0 0 410 0 409 403 -2 402 -2 3
-407z m1000 0 l2 -408 -405 0 -405 0 0 410 0 409 403 -2 402 -2 3 -407z m1000
-1 l2 -407 -407 2 -408 3 -3 395 c-1 217 0 400 2 407 4 10 99 12 408 10 l403
-2 3 -408z m1000 0 l2 -407 -407 2 -408 3 -3 394 c-1 217 -1 400 2 407 4 9 99
12 408 11 l403 -2 3 -408z m986 407 c14 -5 16 -51 16 -410 l0 -404 -407 2
-408 3 -1 400 c-1 220 0 403 3 408 5 8 774 10 797 1z m1014 -406 l2 -408 -410
0 -410 0 0 403 c0 222 3 407 6 410 4 4 187 5 408 4 l401 -2 3 -407z m1000 0
l2 -408 -410 0 -410 0 0 403 c0 222 3 407 7 410 4 4 187 6 407 5 l401 -3 3
-407z m1000 0 l2 -408 -410 0 -410 0 0 403 c0 222 3 406 6 410 4 3 187 5 408
4 l401 -2 3 -407z m1002 -3 l0 -405 -407 2 -408 3 -2 403 -2 402 409 0 410 0
0 -405z m-28762 -877 l2 -408 -335 0 -335 0 0 410 0 410 333 -2 332 -3 3 -407z
m988 405 c12 -4 14 -71 14 -409 l0 -404 -405 0 -405 0 0 410 0 411 391 -1
c215 -1 397 -4 405 -7z m1012 -405 l2 -408 -405 0 -405 0 0 409 0 408 403 -1
402 -1 3 -407z m1000 -1 l2 -407 -407 2 -408 3 -3 395 c-1 217 0 401 3 408 4
11 83 12 407 10 l403 -3 3 -408z m1000 0 l2 -407 -407 2 -408 3 -2 399 c-1
219 0 402 2 406 3 4 186 7 407 6 l403 -1 3 -408z m988 406 c12 -4 14 -79 14
-409 l0 -404 -407 2 -408 3 -3 365 c-2 201 0 384 3 408 l6 43 391 -1 c215 -1
397 -4 404 -7z m1012 -406 l2 -407 -407 2 -408 3 -3 395 c-1 217 0 400 2 406
3 8 117 11 408 10 l403 -1 3 -408z m955 407 l47 -7 0 -403 0 -404 -410 0 -410
0 0 403 c0 222 3 406 6 410 9 8 706 9 767 1z m1030 1 c16 -7 17 -36 17 -411
l0 -404 -407 2 -408 3 -3 395 c-1 217 0 400 2 406 5 12 767 21 799 9z m1017
-410 l0 -405 -404 0 c-359 0 -405 2 -410 16 -3 9 -6 191 -6 405 l0 389 410 0
410 0 0 -405z m-18722 -37 l2 -408 -405 0 -405 0 0 409 0 409 403 -2 402 -1 3
-407z m952 406 l50 -7 0 -403 0 -404 -405 0 -405 0 0 409 0 409 355 2 c195 0
377 -2 405 -6z m1048 -406 l2 -408 -405 0 -405 0 0 409 0 409 403 -1 402 -2 3
-407z m946 406 l56 -7 0 -403 0 -404 -407 2 -408 3 -2 399 c-1 219 0 403 3
407 6 10 678 12 758 3z m1054 -407 l2 -407 -407 2 -408 3 -2 395 c-2 217 -1
400 1 406 3 9 115 11 408 10 l403 -1 3 -408z m938 407 l64 -7 0 -403 0 -404
-407 2 -408 3 -2 399 c-1 220 0 403 3 407 6 10 660 12 750 3z m1048 0 c14 -5
16 -48 16 -410 l0 -404 -407 2 -408 3 -3 395 c-1 217 0 400 2 406 3 9 112 12
394 13 215 1 397 -2 406 -5z m1014 -406 l2 -408 -410 0 -410 0 0 403 c0 222 3
407 6 410 4 3 187 5 408 4 l401 -2 3 -407z m1000 -1 l2 -407 -407 2 -408 3 -3
395 c-1 217 0 400 2 406 3 8 119 11 408 10 l403 -1 3 -408z m1002 -2 l0 -405
-407 2 -408 3 -2 403 -2 402 410 0 409 0 0 -405z m10578 369 l22 -6 0 -404 0
-404 -405 0 -405 0 0 409 0 408 383 2 c210 0 392 -2 405 -5z m1006 0 c14 -6
16 -46 16 -410 l0 -404 -405 0 -405 0 0 410 0 409 389 1 c213 0 396 -2 405 -6z
m994 0 l22 -6 0 -404 0 -404 -405 0 -405 0 0 409 0 408 383 2 c210 0 392 -2
405 -5z m942 0 l80 -7 0 -404 0 -403 -407 2 -408 3 -3 395 c-1 217 0 400 2
407 6 13 591 19 736 7z m1058 0 l22 -6 0 -404 0 -404 -407 2 -408 3 -3 395
c-1 217 0 400 2 406 5 12 750 19 794 8z m1020 -407 l2 -407 -407 2 -408 3 -2
399 c-1 220 0 403 3 408 3 4 186 7 407 5 l402 -2 3 -408z m986 407 c14 -5 16
-50 16 -410 l0 -404 -407 2 -408 3 -3 395 c-1 217 0 400 2 407 4 8 108 12 394
12 215 1 397 -2 406 -5z m1014 -406 l2 -408 -410 0 -410 0 0 403 c0 222 3 407
7 410 3 4 187 6 407 5 l401 -3 3 -407z m985 407 c16 -7 17 -36 17 -411 l0
-404 -407 2 -408 3 -3 395 c-1 217 0 400 2 406 5 12 767 21 799 9z m1017 -410
l0 -405 -407 2 -408 3 -2 403 -3 402 410 0 410 0 0 -405z m10848 -7 l2 -408
-405 0 -405 0 0 409 0 409 403 -2 402 -1 3 -407z m984 404 c17 -4 18 -26 18
-408 l0 -404 -405 0 -405 0 0 411 0 410 387 -2 c213 -1 395 -4 405 -7z m1016
-404 l2 -408 -405 0 -405 0 0 408 0 408 403 0 402 -1 3 -407z m990 405 c9 -4
12 -95 12 -409 l0 -404 -407 2 -408 3 -3 395 c-1 217 0 401 3 408 4 11 81 13
397 11 216 -1 399 -4 406 -6z m1010 -406 l2 -407 -407 2 -408 3 -3 395 c-1
217 0 400 2 406 3 7 126 10 408 10 l403 -1 3 -408z m1000 0 l2 -407 -407 2
-408 3 -3 375 c-2 206 0 390 3 408 l6 33 402 -3 402 -3 3 -408z m1000 0 l2
-407 -407 2 -408 3 -3 395 c-1 217 0 400 2 406 3 7 127 10 408 10 l403 -1 3
-408z m1000 1 l2 -408 -410 0 -410 0 0 403 c0 222 3 407 7 411 4 3 187 5 407
4 l401 -3 3 -407z m1000 -1 l2 -407 -407 2 -408 3 -3 395 c-1 217 0 400 2 406
3 7 131 10 407 10 l404 -1 3 -408z m1002 -2 l0 -405 -404 0 -404 0 -6 25 c-4
14 -6 196 -6 405 l1 380 409 0 410 0 0 -405z m-18972 -27 l2 -408 -405 0 -405
0 0 409 0 409 403 -1 402 -2 3 -407z m961 406 l41 -7 0 -403 0 -404 -405 0
-405 0 0 410 0 409 364 1 c201 0 383 -2 405 -6z m1039 -406 l2 -408 -405 0
-405 0 0 409 0 409 403 -2 402 -1 3 -407z m987 405 c13 -4 15 -64 15 -409 l0
-404 -407 2 -408 3 -2 399 c-1 219 0 403 3 407 6 10 776 12 799 2z m1013 -406
l2 -407 -407 2 -408 3 -2 400 c-1 219 0 402 3 406 2 4 185 7 407 6 l402 -2 3
-408z m988 406 c12 -4 14 -71 14 -409 l0 -404 -407 2 -408 3 -2 399 c-1 220 0
403 3 408 6 9 776 10 800 1z m1012 -406 l2 -407 -407 2 -408 3 -3 395 c-1 217
0 400 2 406 3 9 114 11 408 10 l403 -1 3 -408z m987 406 c13 -4 15 -63 15
-409 l0 -404 -410 0 -410 0 0 403 c0 222 3 407 7 411 8 8 777 8 798 -1z m998
1 c16 -6 17 -36 17 -410 l0 -404 -407 2 -408 3 -3 395 c-1 217 0 400 2 406 5
13 767 21 799 8z m1017 -409 l0 -405 -407 2 -408 3 -2 403 -1 402 409 0 409 0
0 -405z m-28760 -875 l0 -410 -335 0 -335 0 0 410 0 410 335 0 335 0 0 -410z
m1000 0 l0 -410 -405 0 -405 0 0 410 0 410 405 0 405 0 0 -410z m1000 0 l0
-410 -405 0 -405 0 0 410 0 410 405 0 405 0 0 -410z m1000 0 l0 -410 -407 2
-408 3 -3 395 c-1 217 0 401 3 407 3 10 94 13 410 13 l405 0 0 -410z m998 -3
l2 -407 -407 2 -408 3 -3 395 c-1 217 0 401 3 408 3 10 90 12 407 10 l403 -3
3 -408z m1000 0 l2 -407 -407 2 -408 3 -3 335 c-2 184 0 368 3 408 l7 72 401
-2 402 -3 3 -408z m1000 1 l2 -408 -410 0 -410 0 0 403 c0 222 3 407 7 410 4
4 187 6 407 5 l401 -3 3 -407z m1000 -1 l2 -407 -407 2 -408 3 -3 395 c-1 217
0 401 3 408 3 10 90 12 407 10 l403 -3 3 -408z m1000 1 l2 -408 -410 0 -410 0
0 403 c0 222 3 407 7 410 4 4 187 6 407 5 l401 -3 3 -407z m1002 -4 l0 -404
-407 2 -408 3 -1 400 -2 400 402 5 c220 3 404 4 409 2 4 -2 7 -185 7 -408z
m-18722 -36 l2 -408 -405 0 -405 0 0 410 0 410 403 -2 402 -3 3 -407z m1000 0
l2 -408 -405 0 -405 0 0 410 0 410 403 -2 402 -3 3 -407z m1002 2 l0 -410
-405 0 -405 0 0 410 0 410 405 0 405 0 0 -410z m1000 0 l0 -410 -407 2 -408 3
-3 395 c-1 217 0 401 3 407 3 10 94 13 410 13 l405 0 0 -410z m998 -3 l2 -407
-407 2 -408 3 -3 395 c-1 217 0 401 3 408 3 10 90 12 407 10 l403 -3 3 -408z
m1000 0 l2 -407 -407 2 -408 3 -3 315 c-2 173 -1 357 3 408 l7 92 401 -2 402
-3 3 -408z m1000 0 l2 -407 -407 2 -408 3 -3 395 c-1 217 0 401 3 408 3 10 90
12 407 10 l403 -3 3 -408z m1000 1 l2 -408 -410 0 -410 0 0 403 c0 222 3 407
7 410 4 4 187 6 407 5 l401 -3 3 -407z m1000 -1 l2 -407 -407 2 -408 3 -3 395
c-1 217 0 401 3 408 3 10 90 12 407 10 l403 -3 3 -408z m1002 -3 l0 -404 -407
2 -408 3 -2 400 -3 400 403 5 c221 3 405 4 410 2 4 -2 7 -185 7 -408z m10600
-34 l0 -410 -405 0 -405 0 0 410 0 410 405 0 405 0 0 -410z m1000 0 l0 -410
-405 0 -405 0 0 410 0 410 405 0 405 0 0 -410z m1000 0 l0 -410 -405 0 -405 0
0 410 0 410 405 0 405 0 0 -410z m998 -3 l2 -407 -407 2 -408 3 -3 395 c-1
217 0 401 3 408 3 10 90 12 407 10 l403 -3 3 -408z m1000 0 l2 -407 -407 2
-408 3 -3 395 c-1 217 0 401 3 408 3 10 90 12 407 10 l403 -3 3 -408z m1000 0
l2 -407 -407 2 -408 3 -2 400 c-1 220 1 403 3 407 3 5 186 7 407 6 l402 -3 3
-408z m1000 0 l2 -407 -407 2 -408 3 -3 395 c-1 217 0 401 3 408 3 10 90 12
407 10 l403 -3 3 -408z m1000 0 l2 -407 -407 2 -408 3 -3 395 c-1 217 0 401 3
408 3 10 90 12 407 10 l403 -3 3 -408z m1000 0 l2 -407 -407 2 -408 3 -3 395
c-1 217 0 401 3 408 3 10 90 12 407 10 l403 -3 3 -408z m1002 -3 l0 -404 -407
2 -408 3 -1 400 -2 400 402 5 c220 3 404 4 409 2 4 -2 7 -185 7 -408z m10848
-6 l2 -408 -405 0 -405 0 0 410 0 410 403 -2 402 -3 3 -407z m1002 2 l0 -410
-405 0 -405 0 0 410 0 410 405 0 405 0 0 -410z m1000 0 l0 -410 -405 0 -405 0
0 410 0 410 405 0 405 0 0 -410z m1000 0 l0 -410 -407 2 -408 3 -3 395 c-1
217 0 401 3 407 3 10 94 13 410 13 l405 0 0 -410z m998 -3 l2 -407 -407 2
-408 3 -3 395 c-1 217 0 401 3 408 3 10 90 12 407 10 l403 -3 3 -408z m1000 0
l2 -407 -407 2 -408 3 -3 335 c-2 184 0 368 3 408 l7 72 401 -2 402 -3 3 -408z
m1000 0 l2 -407 -407 2 -408 3 -3 395 c-1 217 0 401 3 408 3 10 90 12 407 10
l403 -3 3 -408z m1000 1 l2 -408 -410 0 -410 0 0 403 c0 222 3 407 7 410 4 4
187 6 407 5 l401 -3 3 -407z m1000 0 l2 -408 -410 0 -410 0 0 403 c0 222 3
407 7 410 4 4 187 6 407 5 l401 -3 3 -407z m1002 -4 l0 -404 -404 0 c-359 0
-405 2 -410 16 -3 9 -6 191 -6 405 l0 389 403 2 c221 2 405 2 410 0 4 -2 7
-185 7 -408z m-18970 -24 l0 -410 -405 0 -405 0 0 410 0 410 405 0 405 0 0
-410z m998 -2 l2 -408 -405 0 -405 0 0 410 0 410 403 -2 402 -3 3 -407z m1002
2 l0 -410 -405 0 -405 0 0 410 0 410 405 0 405 0 0 -410z m998 -3 l2 -407
-407 2 -408 3 -3 395 c-1 217 0 401 3 408 3 10 90 12 407 10 l403 -3 3 -408z
m1000 0 l2 -407 -407 2 -408 3 -3 395 c-1 217 0 401 3 408 3 10 90 12 407 10
l403 -3 3 -408z m1000 0 l2 -407 -407 2 -408 3 -1 395 c-1 217 1 401 4 408 3
10 90 12 406 10 l401 -3 3 -408z m1000 0 l2 -407 -407 2 -408 3 -3 395 c-1
217 0 401 3 408 3 10 90 12 407 10 l403 -3 3 -408z m1000 1 l2 -408 -410 0
-410 0 0 403 c0 222 3 407 7 410 4 4 187 6 407 5 l401 -3 3 -407z m1000 -1 l2
-407 -407 2 -408 3 -3 395 c-1 217 0 401 3 408 3 10 90 12 407 10 l403 -3 3
-408z m1002 -3 l0 -404 -407 2 -408 3 -2 400 -3 400 403 5 c221 3 405 4 410 2
4 -2 7 -185 7 -408z m-28760 -874 l0 -410 -335 0 -335 0 0 410 0 410 335 0
335 0 0 -410z m1000 0 l0 -410 -405 0 -405 0 0 410 0 410 405 0 405 0 0 -410z
m1000 0 l0 -410 -405 0 -405 0 0 410 0 410 405 0 405 0 0 -410z m1000 0 l0
-410 -407 2 -408 3 -3 395 c-1 217 0 401 3 407 3 10 94 13 410 13 l405 0 0
-410z m1000 0 l0 -410 -407 2 -408 3 -3 395 c-1 217 0 401 3 407 3 10 94 13
410 13 l405 0 0 -410z m1000 0 l0 -410 -407 2 -408 3 -3 394 c-2 217 -1 400 2
408 4 11 80 13 411 13 l405 0 0 -410z m1000 0 l0 -410 -407 2 -408 3 -3 395
c-1 217 0 401 3 407 3 10 94 13 410 13 l405 0 0 -410z m1000 0 l0 -410 -410 0
-410 0 0 403 c0 222 3 407 7 410 3 4 188 7 410 7 l403 0 0 -410z m998 -2 l2
-408 -410 0 -410 0 0 403 c0 222 3 407 7 410 4 4 187 6 407 5 l401 -3 3 -407z
m1000 -3 l2 -405 -407 2 -408 3 -2 399 c-1 219 -1 402 1 405 2 3 186 5 408 4
l403 -3 3 -405z m-18718 -35 l0 -410 -405 0 -405 0 0 410 0 410 405 0 405 0 0
-410z m1000 0 l0 -410 -405 0 -405 0 0 410 0 410 405 0 405 0 0 -410z m1000 0
l0 -410 -405 0 -405 0 0 410 0 410 405 0 405 0 0 -410z m1000 0 l0 -410 -407
2 -408 3 -3 395 c-1 217 0 401 3 407 3 10 94 13 410 13 l405 0 0 -410z m1000
0 l0 -410 -407 2 -408 3 -3 395 c-1 217 0 401 3 407 3 10 94 13 410 13 l405 0
0 -410z m1000 0 l0 -410 -407 2 -408 3 -2 400 c0 220 1 403 4 407 2 5 186 8
409 8 l404 0 0 -410z m1000 0 l0 -410 -407 2 -408 3 -3 395 c-1 217 0 401 3
407 3 10 94 13 410 13 l405 0 0 -410z m1000 0 l0 -410 -410 0 -410 0 0 403 c0
222 3 407 7 410 3 4 188 7 410 7 l403 0 0 -410z m998 -3 l2 -407 -407 2 -408
3 -3 395 c-1 217 0 401 3 408 3 10 90 12 407 10 l403 -3 3 -408z m1000 -2 l2
-405 -407 2 -408 3 -2 399 c-2 219 -1 401 1 405 2 3 186 5 408 4 l403 -3 3
-405z m10602 -35 l0 -410 -405 0 -405 0 0 410 0 410 405 0 405 0 0 -410z
m1000 0 l0 -410 -405 0 -405 0 0 410 0 410 405 0 405 0 0 -410z m1000 0 l0
-410 -405 0 -405 0 0 410 0 410 405 0 405 0 0 -410z m1000 0 l0 -410 -407 2
-408 3 -3 395 c-1 217 0 401 3 407 3 10 94 13 410 13 l405 0 0 -410z m1000 0
l0 -410 -407 2 -408 3 -3 395 c-1 217 0 401 3 407 3 10 94 13 410 13 l405 0 0
-410z m1000 0 l0 -410 -407 2 -408 3 -2 399 c-2 219 0 402 3 407 3 5 187 9
410 9 l404 0 0 -410z m1000 0 l0 -410 -407 2 -408 3 -3 395 c-1 217 0 401 3
407 3 10 94 13 410 13 l405 0 0 -410z m1000 0 l0 -410 -410 0 -410 0 0 403 c0
222 3 407 7 410 3 4 188 7 410 7 l403 0 0 -410z m998 -3 l2 -407 -407 2 -408
3 -3 395 c-1 217 0 401 3 408 3 10 90 12 407 10 l403 -3 3 -408z m1000 -2 l2
-405 -404 0 c-352 0 -405 2 -410 15 -6 17 -8 790 -2 796 3 2 186 3 408 2 l403
-3 3 -405z m10852 -5 l0 -410 -405 0 -405 0 0 410 0 410 405 0 405 0 0 -410z
m1000 0 l0 -410 -405 0 -405 0 0 410 0 410 405 0 405 0 0 -410z m1000 0 l0
-410 -405 0 -405 0 0 410 0 410 405 0 405 0 0 -410z m1000 0 l0 -410 -407 2
-408 3 -3 395 c-1 217 0 401 3 407 3 10 94 13 410 13 l405 0 0 -410z m1000 0
l0 -410 -407 2 -408 3 -3 395 c-1 217 0 401 3 407 3 10 94 13 410 13 l405 0 0
-410z m1000 0 l0 -410 -407 2 -408 3 -3 394 c-2 217 -1 400 2 408 4 10 81 13
411 13 l405 0 0 -410z m1000 0 l0 -410 -407 2 -408 3 -3 395 c-1 217 0 401 3
407 3 10 94 13 410 13 l405 0 0 -410z m1000 0 l0 -410 -410 0 -410 0 0 403 c0
222 3 407 7 410 3 4 188 7 410 7 l403 0 0 -410z m998 -3 l2 -407 -407 2 -408
3 -3 395 c-1 217 0 401 3 408 3 10 90 12 407 10 l403 -3 3 -408z m1000 -2 l2
-405 -407 2 -408 3 -3 395 c-1 217 -1 399 1 405 3 7 134 9 408 8 l404 -2 3
-406z m-18968 -25 l0 -410 -405 0 -405 0 0 410 0 410 405 0 405 0 0 -410z
m1000 0 l0 -410 -405 0 -405 0 0 410 0 410 405 0 405 0 0 -410z m1000 0 l0
-410 -405 0 -405 0 0 410 0 410 405 0 405 0 0 -410z m1000 0 l0 -410 -407 2
-408 3 -3 395 c-1 217 0 401 3 407 3 10 94 13 410 13 l405 0 0 -410z m1000 0
l0 -410 -407 2 -408 3 -3 395 c-1 217 0 401 3 407 3 10 94 13 410 13 l405 0 0
-410z m1000 0 l0 -410 -407 2 -408 3 -2 400 c-1 220 1 403 3 407 3 5 187 8
410 8 l404 0 0 -410z m1000 0 l0 -410 -407 2 -408 3 -3 395 c-1 217 0 401 3
407 3 10 94 13 410 13 l405 0 0 -410z m1000 0 l0 -410 -410 0 -410 0 0 403 c0
222 3 407 7 410 3 4 188 7 410 7 l403 0 0 -410z m1000 0 l0 -410 -410 0 -410
0 0 403 c0 222 3 407 7 410 3 4 188 7 410 7 l403 0 0 -410z m998 -5 l2 -405
-407 2 -408 3 -2 399 c-1 219 -1 402 1 405 2 3 186 5 408 4 l403 -2 3 -406z
m-28758 -875 l0 -410 -335 0 -335 0 0 410 0 410 335 0 335 0 0 -410z m1000 0
l0 -410 -405 0 -405 0 0 410 0 410 405 0 405 0 0 -410z m1000 0 l0 -410 -405
0 -405 0 0 410 0 410 405 0 405 0 0 -410z m1000 0 l0 -410 -407 2 -408 3 -3
395 c-1 217 0 401 3 407 3 10 94 13 410 13 l405 0 0 -410z m1000 0 l0 -410
-407 2 -408 3 -3 395 c-1 217 0 401 3 407 3 10 94 13 410 13 l405 0 0 -410z
m1000 0 l0 -410 -404 0 c-365 0 -404 2 -410 16 -8 20 -7 724 1 772 l5 32 404
0 404 0 0 -410z m1000 0 l0 -410 -407 2 -408 3 -3 395 c-1 217 0 401 3 407 3
10 94 13 410 13 l405 0 0 -410z m998 -3 l2 -407 -407 2 -408 3 -3 395 c-1 217
0 401 3 408 3 10 90 12 407 10 l403 -3 3 -408z m1000 0 l2 -407 -407 2 -408 3
-3 395 c-1 217 0 401 3 408 3 10 90 12 407 10 l403 -3 3 -408z m1002 -3 l0
-404 -407 2 -408 3 -1 400 -2 400 402 5 c220 3 404 4 409 2 4 -2 7 -185 7
-408z m-18720 -34 l0 -410 -405 0 -405 0 0 410 0 410 405 0 405 0 0 -410z
m1000 0 l0 -410 -405 0 -405 0 0 410 0 410 405 0 405 0 0 -410z m1000 0 l0
-410 -405 0 -405 0 0 410 0 410 405 0 405 0 0 -410z m1000 0 l0 -410 -407 2
-408 3 -3 395 c-1 217 0 401 3 407 3 10 94 13 410 13 l405 0 0 -410z m1000 0
l0 -410 -407 2 -408 3 -3 395 c-1 217 0 401 3 407 3 10 94 13 410 13 l405 0 0
-410z m998 -3 l2 -407 -407 2 -408 3 -2 380 c-1 209 1 392 4 408 l5 27 402 -2
401 -3 3 -408z m1000 0 l2 -407 -407 2 -408 3 -3 395 c-1 217 0 401 3 408 3
10 90 12 407 10 l403 -3 3 -408z m1000 0 l2 -407 -407 2 -408 3 -3 395 c-1
217 0 401 3 408 3 10 90 12 407 10 l403 -3 3 -408z m1000 0 l2 -407 -407 2
-408 3 -3 395 c-1 217 0 401 3 408 3 10 90 12 407 10 l403 -3 3 -408z m1002
-3 l0 -404 -407 2 -408 3 -2 400 -3 400 403 5 c221 3 405 4 410 2 4 -2 7 -185
7 -408z m10600 -34 l0 -410 -405 0 -405 0 0 410 0 410 405 0 405 0 0 -410z
m1000 0 l0 -410 -405 0 -405 0 0 410 0 410 405 0 405 0 0 -410z m1000 0 l0
-410 -405 0 -405 0 0 410 0 410 405 0 405 0 0 -410z m1000 0 l0 -410 -407 2
-408 3 -3 395 c-1 217 0 401 3 407 3 10 94 13 410 13 l405 0 0 -410z m998 -3
l2 -407 -407 2 -408 3 -3 395 c-1 217 0 401 3 408 3 10 90 12 407 10 l403 -3
3 -408z m1000 0 l2 -407 -407 2 -408 3 -2 400 c0 220 1 403 4 408 2 4 185 6
406 5 l402 -3 3 -408z m1002 3 l0 -410 -407 2 -408 3 -3 395 c-1 217 0 401 3
407 3 10 94 13 410 13 l405 0 0 -410z m998 -3 l2 -407 -407 2 -408 3 -3 395
c-1 217 0 401 3 408 3 10 90 12 407 10 l403 -3 3 -408z m1000 0 l2 -407 -407
2 -408 3 -3 395 c-1 217 0 401 3 408 3 10 90 12 407 10 l403 -3 3 -408z m1002
-3 l0 -404 -407 2 -408 3 -2 400 -1 400 401 5 c221 3 405 4 410 2 4 -2 7 -185
7 -408z m10850 -4 l0 -410 -405 0 -405 0 0 410 0 410 405 0 405 0 0 -410z
m1000 0 l0 -410 -405 0 -405 0 0 410 0 410 405 0 405 0 0 -410z m1000 0 l0
-410 -405 0 -405 0 0 410 0 410 405 0 405 0 0 -410z m1000 0 l0 -410 -407 2
-408 3 -3 395 c-1 217 0 401 3 407 3 10 94 13 410 13 l405 0 0 -410z m1000 0
l0 -410 -407 2 -408 3 -3 395 c-1 217 0 401 3 407 3 10 94 13 410 13 l405 0 0
-410z m1000 0 l0 -410 -404 0 -404 0 -6 26 c-8 30 -7 727 1 767 l5 27 404 0
404 0 0 -410z m1000 0 l0 -410 -407 2 -408 3 -3 395 c-1 217 0 401 3 407 3 10
94 13 410 13 l405 0 0 -410z m1000 0 l0 -410 -407 2 -408 3 -3 395 c-1 217 0
401 3 407 3 10 94 13 410 13 l405 0 0 -410z m998 -3 l2 -407 -407 2 -408 3 -3
395 c-1 217 0 401 3 408 3 10 90 12 407 10 l403 -3 3 -408z m1002 -3 l0 -404
-407 2 -408 3 -2 400 -2 400 402 5 c221 3 405 4 410 2 4 -2 7 -185 7 -408z
m-18970 -24 l0 -410 -405 0 -405 0 0 410 0 410 405 0 405 0 0 -410z m1000 0
l0 -410 -405 0 -405 0 0 410 0 410 405 0 405 0 0 -410z m1000 0 l0 -410 -405
0 -405 0 0 410 0 410 405 0 405 0 0 -410z m1000 0 l0 -410 -407 2 -408 3 -3
395 c-1 217 0 401 3 407 3 10 94 13 410 13 l405 0 0 -410z m1000 0 l0 -410
-407 2 -408 3 -3 395 c-1 217 0 401 3 407 3 10 94 13 410 13 l405 0 0 -410z
m1000 0 l0 -410 -407 2 -408 3 -2 394 c-1 216 1 400 4 407 4 12 74 14 409 14
l404 0 0 -410z m1000 0 l0 -410 -407 2 -408 3 -3 395 c-1 217 0 401 3 407 3
10 94 13 410 13 l405 0 0 -410z m998 -3 l2 -407 -407 2 -408 3 -3 395 c-1 217
0 401 3 408 3 10 90 12 407 10 l403 -3 3 -408z m1000 0 l2 -407 -407 2 -408 3
-3 395 c-1 217 0 401 3 408 3 10 90 12 407 10 l403 -3 3 -408z m1002 -3 l0
-404 -407 2 -408 3 -2 400 -2 400 402 5 c221 3 405 4 410 2 4 -2 7 -185 7
-408z m-28760 -874 l0 -410 -335 0 -335 0 0 410 0 410 335 0 335 0 0 -410z
m1000 0 l0 -410 -405 0 -405 0 0 410 0 410 405 0 405 0 0 -410z m1000 0 l0
-410 -405 0 -405 0 0 410 0 410 405 0 405 0 0 -410z m1000 0 l0 -410 -407 2
-408 3 -3 395 c-1 217 0 401 3 407 3 10 94 13 410 13 l405 0 0 -410z m998 -2
l2 -408 -404 0 c-359 0 -405 2 -410 16 -8 22 -8 789 1 797 4 4 187 6 407 5
l401 -3 3 -407z m1002 2 l0 -410 -404 0 c-331 0 -405 2 -409 14 -8 20 -9 750
-1 780 l6 26 404 0 404 0 0 -410z m998 -3 l2 -407 -407 2 -408 3 -3 395 c-1
217 0 401 3 408 3 10 90 12 407 10 l403 -3 3 -408z m1002 3 l0 -410 -407 2
-408 3 -3 395 c-1 217 0 401 3 407 3 10 94 13 410 13 l405 0 0 -410z m998 -3
l2 -407 -407 2 -408 3 -3 395 c-1 217 0 401 3 408 3 10 90 12 407 10 l403 -3
3 -408z m1000 1 l2 -408 -404 0 c-333 0 -405 2 -409 14 -8 21 -9 791 0 799 4
4 187 6 407 5 l401 -3 3 -407z m-18718 -38 l0 -410 -405 0 -405 0 0 410 0 410
405 0 405 0 0 -410z m1000 0 l0 -410 -405 0 -405 0 0 410 0 410 405 0 405 0 0
-410z m1000 0 l0 -410 -405 0 -405 0 0 410 0 410 405 0 405 0 0 -410z m1000 0
l0 -410 -407 2 -408 3 -3 395 c-1 217 0 401 3 407 3 10 94 13 410 13 l405 0 0
-410z m1000 0 l0 -410 -407 2 -408 3 -2 395 c-2 217 -1 401 2 408 3 9 95 12
410 12 l405 0 0 -410z m1000 0 l0 -410 -407 2 -408 3 -2 399 c-1 220 0 403 3
408 3 4 187 8 410 8 l404 0 0 -410z m1000 0 l0 -410 -407 2 -408 3 -3 395 c-1
217 0 401 3 407 3 10 94 13 410 13 l405 0 0 -410z m1000 0 l0 -410 -407 2
-408 3 -3 395 c-1 217 0 401 3 407 3 10 94 13 410 13 l405 0 0 -410z m998 -3
l2 -407 -407 2 -408 3 -3 395 c-1 217 0 401 3 408 3 10 90 12 407 10 l403 -3
3 -408z m1000 0 l2 -407 -407 2 -408 3 -2 395 c-2 217 -1 401 2 407 3 10 94
12 407 10 l403 -2 3 -408z m10602 -37 l0 -410 -405 0 -405 0 0 410 0 410 405
0 405 0 0 -410z m1000 0 l0 -410 -405 0 -405 0 0 410 0 410 405 0 405 0 0
-410z m1000 0 l0 -410 -405 0 -405 0 0 410 0 410 405 0 405 0 0 -410z m1000 0
l0 -410 -407 2 -408 3 -3 395 c-1 217 0 401 3 407 3 10 94 13 410 13 l405 0 0
-410z m1000 0 l0 -410 -407 2 -408 3 -3 395 c-1 217 0 401 3 407 3 10 94 13
410 13 l405 0 0 -410z m1000 0 l0 -410 -404 0 c-331 0 -405 2 -409 14 -8 20
-9 750 -1 780 l6 26 404 0 404 0 0 -410z m1000 0 l0 -410 -407 2 -408 3 -3
395 c-1 217 0 401 3 407 3 10 94 13 410 13 l405 0 0 -410z m1000 0 l0 -410
-407 2 -408 3 -3 395 c-1 217 0 401 3 407 3 10 94 13 410 13 l405 0 0 -410z
m998 -3 l2 -407 -407 2 -408 3 -3 395 c-1 217 0 401 3 408 3 10 90 12 407 10
l403 -3 3 -408z m1000 1 l2 -408 -404 0 c-333 0 -405 2 -409 14 -8 20 -9 791
-1 799 4 3 187 5 408 4 l401 -2 3 -407z m10852 -8 l0 -410 -405 0 -405 0 0
410 0 410 405 0 405 0 0 -410z m1000 0 l0 -410 -405 0 -405 0 0 410 0 410 405
0 405 0 0 -410z m1000 0 l0 -410 -405 0 -405 0 0 410 0 410 405 0 405 0 0
-410z m1000 0 l0 -410 -407 2 -408 3 -3 395 c-1 217 0 401 3 407 3 10 94 13
410 13 l405 0 0 -410z m998 -3 l2 -407 -407 2 -408 3 -3 395 c-1 217 0 401 3
408 3 10 90 12 407 10 l403 -3 3 -408z m1000 1 l2 -408 -404 0 -404 0 -5 22
c-9 32 -9 783 0 791 3 4 187 6 407 5 l401 -3 3 -407z m1000 -1 l2 -407 -407 2
-408 3 -3 395 c-1 217 0 401 3 408 3 10 90 12 407 10 l403 -3 3 -408z m1000 0
l2 -407 -407 2 -408 3 -3 395 c-1 217 0 401 3 408 3 10 90 12 407 10 l403 -3
3 -408z m1000 0 l2 -407 -407 2 -408 3 -3 395 c-1 217 0 401 3 408 3 10 90 12
407 10 l403 -3 3 -408z m1000 1 l2 -408 -404 0 -404 0 -5 22 c-9 32 -9 783 0
791 4 4 187 6 407 5 l401 -3 3 -407z m-18968 -28 l0 -410 -405 0 -405 0 0 410
0 410 405 0 405 0 0 -410z m1000 0 l0 -410 -405 0 -405 0 0 410 0 410 405 0
405 0 0 -410z m1000 0 l0 -410 -405 0 -405 0 0 410 0 410 405 0 405 0 0 -410z
m1000 0 l0 -410 -407 2 -408 3 -3 395 c-1 217 0 401 3 407 3 10 94 13 410 13
l405 0 0 -410z m1000 0 l0 -410 -407 2 -408 3 -2 395 c-2 217 -1 401 2 408 3
9 95 12 410 12 l405 0 0 -410z m998 -2 l2 -408 -404 0 -404 0 -6 26 c-8 32 -7
780 2 788 3 4 186 5 406 4 l401 -3 3 -407z m1002 2 l0 -410 -407 2 -408 3 -3
395 c-1 217 0 401 3 407 3 10 94 13 410 13 l405 0 0 -410z m1000 0 l0 -410
-407 2 -408 3 -3 395 c-1 217 0 401 3 407 3 10 94 13 410 13 l405 0 0 -410z
m998 -3 l2 -407 -407 2 -408 3 -3 395 c-1 217 0 401 3 408 3 10 90 12 407 10
l403 -3 3 -408z m1000 1 l2 -408 -404 0 -404 0 -6 23 c-8 33 -7 783 1 791 4 4
187 5 408 4 l400 -3 3 -407z m-28798 -843 l0 -405 -315 0 -315 0 0 405 0 405
315 0 315 0 0 -405z m1000 0 l0 -405 -405 0 -405 0 0 405 0 405 405 0 405 0 0
-405z m1000 0 l0 -405 -405 0 -405 0 0 405 0 405 405 0 405 0 0 -405z m1000 0
l0 -405 -407 2 -408 3 -3 403 -2 402 410 0 410 0 0 -405z m1000 0 l0 -405
-407 2 -408 3 -3 403 -2 402 410 0 410 0 0 -405z m1000 0 l0 -405 -407 2 -408
3 -2 372 c-2 205 0 386 3 403 l7 30 403 0 404 0 0 -405z m1000 0 l0 -405 -410
0 -410 0 0 405 0 405 410 0 410 0 0 -405z m1000 0 l0 -405 -410 0 -410 0 0
405 0 405 410 0 410 0 0 -405z m1000 0 l0 -405 -410 0 -410 0 0 405 0 405 410
0 410 0 0 -405z m1000 0 l0 -405 -407 2 -408 3 -3 389 c-1 215 0 396 2 403 4
10 87 13 411 13 l405 0 0 -405z m-18720 -40 l0 -405 -405 0 -405 0 0 405 0
405 405 0 405 0 0 -405z m1000 0 l0 -405 -405 0 -405 0 0 405 0 405 405 0 405
0 0 -405z m1000 0 l0 -405 -405 0 -405 0 0 405 0 405 405 0 405 0 0 -405z
m1000 0 l0 -405 -407 2 -408 3 -3 403 -2 402 410 0 410 0 0 -405z m1000 0 l0
-405 -407 2 -408 3 -2 403 -2 402 409 0 410 0 0 -405z m1000 0 l0 -405 -407 2
-408 3 -2 375 c-1 206 1 387 4 403 l5 27 404 0 404 0 0 -405z m1000 0 l0 -405
-410 0 -410 0 0 405 0 405 410 0 410 0 0 -405z m1000 0 l0 -405 -410 0 -410 0
0 405 0 405 410 0 410 0 0 -405z m1000 0 l0 -405 -410 0 -410 0 0 405 0 405
410 0 410 0 0 -405z m1000 0 l0 -405 -407 2 -408 3 -1 395 c-1 217 0 398 3
403 2 4 186 7 409 7 l404 0 0 -405z m10600 -40 l0 -405 -395 0 -395 0 0 405 0
405 395 0 395 0 0 -405z m1000 0 l0 -405 -405 0 -405 0 0 405 0 405 405 0 405
0 0 -405z m1000 0 l0 -405 -405 0 -405 0 0 405 0 405 405 0 405 0 0 -405z
m1000 0 l0 -405 -407 2 -408 3 -3 403 -2 402 410 0 410 0 0 -405z m1000 0 l0
-405 -407 2 -408 3 -3 403 -2 402 410 0 410 0 0 -405z m1000 0 l0 -405 -407 2
-408 3 -3 370 c-2 204 0 385 3 403 l6 32 404 0 405 0 0 -405z m1000 0 l0 -405
-410 0 -410 0 0 405 0 405 410 0 410 0 0 -405z m1000 0 l0 -405 -410 0 -410 0
0 405 0 405 410 0 410 0 0 -405z m1000 0 l0 -405 -410 0 -410 0 0 405 0 405
410 0 410 0 0 -405z m1000 0 l0 -405 -407 2 -408 3 -2 393 c-2 217 0 398 3
403 3 5 181 9 410 9 l404 0 0 -405z m10850 -10 l0 -405 -405 0 -405 0 0 405 0
405 405 0 405 0 0 -405z m1000 0 l0 -405 -405 0 -405 0 0 405 0 405 405 0 405
0 0 -405z m1000 0 l0 -405 -405 0 -405 0 0 405 0 405 405 0 405 0 0 -405z
m1000 0 l0 -405 -407 2 -408 3 -3 403 -2 402 410 0 410 0 0 -405z m1000 0 l0
-405 -407 2 -408 3 -3 403 -2 402 410 0 410 0 0 -405z m1000 0 l0 -405 -407 2
-408 3 -3 330 c-2 182 -1 363 3 403 l7 72 404 0 404 0 0 -405z m1000 0 l0
-405 -410 0 -410 0 0 405 0 405 410 0 410 0 0 -405z m1000 0 l0 -405 -410 0
-410 0 0 405 0 405 410 0 410 0 0 -405z m1000 0 l0 -405 -410 0 -410 0 0 405
0 405 410 0 410 0 0 -405z m1000 0 l0 -405 -407 2 -408 3 -3 403 -3 402 411 0
410 0 0 -405z m-18970 -30 l0 -405 -395 0 -395 0 0 405 0 405 395 0 395 0 0
-405z m1000 0 l0 -405 -405 0 -405 0 0 405 0 405 405 0 405 0 0 -405z m1000 0
l0 -405 -405 0 -405 0 0 405 0 405 405 0 405 0 0 -405z m1000 0 l0 -405 -407
2 -408 3 -3 403 -2 402 410 0 410 0 0 -405z m1000 0 l0 -405 -407 2 -408 3 -3
403 -2 402 410 0 410 0 0 -405z m1000 0 l0 -405 -407 2 -408 3 -2 394 c-1 217
0 398 3 403 3 4 187 8 410 8 l404 0 0 -405z m1000 0 l0 -405 -410 0 -410 0 0
405 0 405 410 0 410 0 0 -405z m1000 0 l0 -405 -410 0 -410 0 0 405 0 405 410
0 410 0 0 -405z m1000 0 l0 -405 -410 0 -410 0 0 405 0 405 410 0 410 0 0
-405z m1000 0 l0 -405 -407 2 -408 3 -2 395 c-1 217 1 398 3 402 3 4 187 8
410 8 l404 0 0 -405z m-28760 -880 l0 -405 -315 0 -315 0 0 405 0 405 315 0
315 0 0 -405z m1000 0 l0 -405 -405 0 -405 0 0 405 0 405 405 0 405 0 0 -405z
m1000 0 l0 -405 -405 0 -405 0 0 405 0 405 405 0 405 0 0 -405z m1000 0 l0
-405 -410 0 -410 0 0 405 1 405 409 0 410 0 0 -405z m1000 0 l0 -405 -407 2
-408 3 -3 403 -2 402 410 0 410 0 0 -405z m1000 0 l0 -405 -404 0 -404 0 -6
35 c-4 20 -6 202 -5 405 l1 370 409 0 409 0 0 -405z m1000 0 l0 -405 -410 0
-410 0 0 405 0 405 410 0 410 0 0 -405z m1000 0 l0 -405 -410 0 -410 0 0 405
0 405 410 0 410 0 0 -405z m1000 0 l0 -405 -410 0 -410 0 0 405 0 405 410 0
410 0 0 -405z m1000 0 l0 -405 -407 2 -408 3 -2 403 -2 402 409 0 410 0 0
-405z m-18720 -40 l0 -405 -405 0 -405 0 0 405 0 405 405 0 405 0 0 -405z
m1000 0 l0 -405 -405 0 -405 0 0 405 0 405 405 0 405 0 0 -405z m1000 0 l0
-405 -405 0 -405 0 0 405 0 405 405 0 405 0 0 -405z m1000 0 l0 -405 -407 2
-408 3 -3 403 -2 402 410 0 410 0 0 -405z m1000 0 l0 -405 -407 2 -408 3 -2
403 -2 402 409 0 410 0 0 -405z m1000 0 l0 -405 -407 2 -408 3 -2 403 -3 402
410 0 410 0 0 -405z m1000 0 l0 -405 -410 0 -410 0 0 405 0 405 410 0 410 0 0
-405z m1000 0 l0 -405 -410 0 -410 0 0 405 0 405 410 0 410 0 0 -405z m1000 0
l0 -405 -410 0 -410 0 0 405 0 405 410 0 410 0 0 -405z m1000 0 l0 -405 -407
2 -408 3 -3 403 -3 402 411 0 410 0 0 -405z m10600 -40 l0 -405 -395 0 -395 0
0 405 0 405 395 0 395 0 0 -405z m1000 0 l0 -405 -405 0 -405 0 0 405 0 405
405 0 405 0 0 -405z m1000 0 l0 -405 -405 0 -405 0 0 405 0 405 405 0 405 0 0
-405z m1000 0 l0 -405 -407 2 -408 3 -3 403 -2 402 410 0 410 0 0 -405z m1000
0 l0 -405 -407 2 -408 3 -2 403 -2 402 409 0 410 0 0 -405z m1000 0 l0 -405
-407 2 -408 3 -2 403 -2 402 409 0 410 0 0 -405z m1000 0 l0 -405 -410 0 -410
0 0 405 0 405 410 0 410 0 0 -405z m1000 0 l0 -405 -410 0 -410 0 0 405 0 405
410 0 410 0 0 -405z m1000 0 l0 -405 -410 0 -410 0 0 405 0 405 410 0 410 0 0
-405z m1000 0 l0 -405 -407 2 -408 3 -2 403 -2 402 409 0 410 0 0 -405z
m10850 -10 l0 -405 -405 0 -405 0 0 405 0 405 405 0 405 0 0 -405z m1000 0 l0
-405 -405 0 -405 0 0 405 0 405 405 0 405 0 0 -405z m1000 0 l0 -405 -405 0
-405 0 0 405 0 405 405 0 405 0 0 -405z m1000 0 l0 -405 -410 0 -410 0 0 405
0 405 410 0 410 0 0 -405z m1000 0 l0 -405 -407 2 -408 3 -3 403 -2 402 410 0
410 0 0 -405z m1000 0 l0 -405 -407 2 -408 3 -2 403 -3 402 410 0 410 0 0
-405z m1000 0 l0 -405 -410 0 -410 0 0 405 0 405 410 0 410 0 0 -405z m1000 0
l0 -405 -410 0 -410 0 0 405 0 405 410 0 410 0 0 -405z m1000 0 l0 -405 -410
0 -410 0 0 405 0 405 410 0 410 0 0 -405z m1000 0 l0 -405 -407 2 -408 3 -3
403 -3 402 411 0 410 0 0 -405z m-18970 -30 l0 -405 -395 0 -395 0 0 405 0
405 395 0 395 0 0 -405z m1000 0 l0 -405 -405 0 -405 0 0 405 0 405 405 0 405
0 0 -405z m1000 0 l0 -405 -405 0 -405 0 0 405 0 405 405 0 405 0 0 -405z
m1000 0 l0 -405 -410 0 -410 0 0 405 1 405 409 0 410 0 0 -405z m1000 0 l0
-405 -407 2 -408 3 -3 403 -2 402 410 0 410 0 0 -405z m1000 0 l0 -405 -404 0
-404 0 -6 25 c-4 14 -6 196 -6 405 l1 380 409 0 410 0 0 -405z m1000 0 l0
-405 -407 2 -408 3 -3 403 -2 402 410 0 410 0 0 -405z m1000 0 l0 -405 -410 0
-410 0 0 405 0 405 410 0 410 0 0 -405z m1000 0 l0 -405 -410 0 -410 0 0 405
0 405 410 0 410 0 0 -405z m1000 0 l0 -405 -407 2 -408 3 -3 403 -3 402 411 0
410 0 0 -405z"/>
</g>
</svg>
