<?xml version="1.0" standalone="no"?>
<!DOCTYPE svg PUBLIC "-//W3C//DTD SVG 20010904//EN"
 "http://www.w3.org/TR/2001/REC-SVG-20010904/DTD/svg10.dtd">
<svg version="1.0" xmlns="http://www.w3.org/2000/svg"
 width="4936.000000pt" height="2292.000000pt" viewBox="0 0 4936.000000 2292.000000"
 preserveAspectRatio="xMidYMid meet">

<g transform="translate(0.000000,2292.000000) scale(0.100000,-0.100000)"
fill="#000000" stroke="none">
<path d="M0 21291 l0 -1629 50 -11 c148 -32 312 -45 565 -45 279 0 404 12 640
60 1245 252 2227 1235 2480 2484 38 185 56 347 62 568 l6 202 -1902 0 -1901 0
0 -1629z"/>
<path d="M36070 22227 l0 -693 -34 -100 c-118 -348 -242 -578 -395 -738 -268
-277 -654 -407 -1608 -541 l-182 -25 -3003 0 -3003 1 -160 -80 c-390 -194
-709 -472 -958 -832 l-67 -96 -25 -249 c-68 -674 -148 -1138 -261 -1511 -19
-62 -33 -123 -33 -135 1 -13 -6 -39 -14 -58 -9 -19 -17 -28 -17 -20 0 8 -14
-19 -31 -60 -234 -587 -609 -934 -1236 -1145 -518 -175 -1099 -263 -2745 -415
l-437 -40 -2368 0 c-1532 0 -2363 -4 -2353 -10 10 -7 -5 -9 -50 -8 l-65 1 50
7 50 7 -47 1 c-26 1 -50 -3 -53 -9 -5 -7 -61 -8 -184 -4 -261 10 -459 -17
-674 -92 -504 -175 -912 -589 -1077 -1093 -50 -153 -80 -303 -97 -494 -4 -49
-10 -65 -34 -87 -23 -21 -29 -36 -29 -69 0 -22 -13 -96 -29 -163 -141 -585
-386 -800 -1066 -936 -82 -17 -231 -43 -330 -58 l-180 -28 -3627 -2 -3627 -2
-63 -29 c-166 -76 -361 -215 -508 -362 -317 -317 -501 -720 -536 -1175 -4 -59
-12 -93 -21 -100 -12 -9 -12 -76 -3 -465 7 -250 10 -594 8 -765 l-3 -310 -38
-110 c-131 -379 -344 -597 -716 -735 l-82 -30 -2055 0 -2054 0 0 -4185 0
-4185 5015 0 5015 0 0 1073 0 1073 51 88 c201 351 467 540 980 696 l134 41
4080 -2 c4265 -1 4162 -2 4336 42 406 101 747 405 894 795 41 110 68 226 87
382 1 7 8 10 16 7 50 -19 62 -18 62 8 0 14 6 28 13 30 10 4 10 6 0 6 -18 1
-16 67 3 175 15 83 15 90 0 101 -14 10 -16 36 -16 178 l0 166 41 78 c138 262
330 460 569 587 228 121 491 198 970 284 l205 37 4608 5 c4296 5 4609 6 4621
22 8 11 39 20 97 28 426 57 800 354 937 746 15 44 31 84 35 90 3 6 25 197 47
425 l41 414 50 155 c159 493 413 779 872 982 136 60 415 150 644 207 l203 51
3023 -1 3023 -1 112 50 c61 27 146 71 189 98 637 393 976 1075 902 1810 -9 86
-9 135 0 205 9 69 12 468 11 1502 l0 1409 54 111 c69 144 138 246 233 347 196
208 438 333 830 427 l158 38 3108 2 3107 3 0 3975 0 3975 -6645 0 -6645 0 0
-693z"/>
<path d="M26674 19276 c-3 -8 -4 -22 -2 -31 2 -12 8 -8 21 14 16 27 16 31 2
31 -8 0 -18 -6 -21 -14z"/>
<path d="M40842 7060 l5 -30 -76 0 c-41 0 -159 -4 -261 -10 -102 -5 -284 -14
-405 -20 -1689 -82 -2548 -216 -3123 -490 -156 -75 -221 -114 -357 -215 -501
-374 -764 -985 -900 -2095 -48 -392 -93 -973 -115 -1470 -42 -932 -44 -970
-57 -978 -6 -4 -14 -24 -18 -45 -4 -20 -11 -37 -16 -37 -17 0 -10 -148 8 -188
9 -20 19 -45 22 -55 4 -11 28 -26 61 -38 53 -19 135 -19 4131 -19 l4078 0 3
28 3 27 260 7 c143 3 364 12 490 18 208 11 315 19 645 50 58 6 157 15 220 21
255 23 644 98 880 170 889 268 1311 766 1495 1764 29 157 75 504 75 565 0 38
2 40 30 40 l30 0 0 1439 c0 993 -3 1448 -11 1468 -15 40 -57 82 -104 104 -39
18 -154 19 -3519 19 l-3478 0 4 -30z"/>
</g>
</svg>
